<?xml version="1.0" encoding="utf-8"?>
<!-- Generator: Adobe Illustrator 27.5.0, SVG Export Plug-In . SVG Version: 6.00 Build 0)  -->
<svg version="1.1" xmlns="http://www.w3.org/2000/svg" xmlns:xlink="http://www.w3.org/1999/xlink" x="0px" y="0px"
	 viewBox="0 0 750 500" style="enable-background:new 0 0 750 500;" xml:space="preserve">
<g id="Background_Complete">
	<g>
		<g>
			<g>
				
					<rect x="569.627" y="279.717" transform="matrix(1 0.0085 -0.0085 1 2.7804 -5.2126)" style="fill:#E0E0E0;" width="89.048" height="89.048"/>
			</g>
			<g>
				<path style="fill:#EBEBEB;" d="M658.962,290.728c0.032,0.048-14.281,9.742-31.964,21.649
					c-17.69,11.912-32.052,21.526-32.084,21.478c-0.032-0.048,14.278-9.74,31.967-21.651
					C644.565,300.297,658.93,290.68,658.962,290.728z"/>
			</g>
			<g>
				<path style="fill:#EBEBEB;" d="M658.151,311.249c0.032,0.048-14.281,9.742-31.964,21.649
					c-17.69,11.912-32.052,21.526-32.084,21.479c-0.032-0.048,14.278-9.74,31.968-21.651
					C643.754,320.818,658.119,311.201,658.151,311.249z"/>
			</g>
			<g>
				<path style="fill:#EBEBEB;" d="M658.619,331.074c0.032,0.048-12.376,8.459-27.71,18.784
					c-15.34,10.329-27.797,18.661-27.829,18.613s12.373-8.457,27.712-18.786C646.127,339.36,658.587,331.026,658.619,331.074z"/>
			</g>
			<g>
				<path style="fill:#EBEBEB;" d="M640.105,279.937c0.032,0.048-10.15,6.96-22.74,15.438c-12.594,8.48-22.826,15.314-22.858,15.267
					s10.148-6.959,22.742-15.439C629.838,286.724,640.073,279.889,640.105,279.937z"/>
			</g>
			<g>
				<path style="fill:#EBEBEB;" d="M658.201,352.357c0.033,0.047-5.166,3.798-11.613,8.378c-6.448,4.581-11.701,8.256-11.734,8.209
					c-0.033-0.047,5.165-3.797,11.614-8.378C652.914,355.985,658.168,352.31,658.201,352.357z"/>
			</g>
			
				<rect x="506.166" y="279.177" transform="matrix(1 0.0085 -0.0085 1 2.7735 -4.6728)" style="fill:#EBEBEB;" width="89.048" height="89.048"/>
		</g>
	</g>
	<g>
		<g>
			<g>
				<polygon style="fill:#E0E0E0;" points="177.139,452.615 100.102,452.767 100.764,374.929 177.794,375.584 				"/>
			</g>
			<g>
				<path style="fill:#EBEBEB;" d="M177.204,385.697c0.028,0.041-12.354,8.427-27.652,18.728
					c-15.303,10.305-27.727,18.622-27.755,18.581c-0.028-0.041,12.351-8.425,27.654-18.73
					C164.75,393.975,177.176,385.656,177.204,385.697z"/>
			</g>
			<g>
				<path style="fill:#EBEBEB;" d="M176.503,403.449c0.028,0.041-12.354,8.427-27.652,18.728
					c-15.303,10.305-27.727,18.622-27.755,18.581c-0.028-0.041,12.351-8.426,27.654-18.73
					C164.048,411.727,176.475,403.408,176.503,403.449z"/>
			</g>
			<g>
				<path style="fill:#EBEBEB;" d="M176.907,420.599c0.028,0.041-10.706,7.318-23.971,16.25
					c-13.27,8.935-24.046,16.143-24.074,16.102c-0.028-0.041,10.703-7.316,23.973-16.251
					C166.101,427.767,176.88,420.558,176.907,420.599z"/>
			</g>
			<g>
				<path style="fill:#EBEBEB;" d="M160.891,376.362c0.028,0.041-8.781,6.021-19.672,13.355
					c-10.895,7.336-19.747,13.248-19.774,13.207c-0.028-0.041,8.779-6.02,19.674-13.356
					C152.01,382.233,160.863,376.32,160.891,376.362z"/>
			</g>
			<g>
				<path style="fill:#EBEBEB;" d="M176.546,439.011c0.029,0.041-4.469,3.286-10.046,7.247c-5.578,3.963-10.122,7.142-10.151,7.101
					c-0.029-0.04,4.468-3.285,10.047-7.248C171.972,442.15,176.517,438.97,176.546,439.011z"/>
			</g>
			
				<rect x="45.023" y="375.705" transform="matrix(1 0.0085 -0.0085 1 3.5267 -0.6957)" style="fill:#F5F5F5;" width="77.033" height="77.033"/>
		</g>
	</g>
	<g>
		<g>
			<polygon style="fill:#E0E0E0;" points="189.604,61.382 189.604,134.771 84.197,134.771 80.399,61.895 			"/>
		</g>
		<g>
			
				<rect x="96.742" y="45.552" transform="matrix(6.123234e-17 -1 1 6.123234e-17 34.8465 231.3584)" style="fill:#FFFFFF;" width="72.722" height="105.407"/>
			<path style="fill:#E0E0E0;" d="M186.306,135.117H79.899V61.395h106.407V135.117z M80.899,134.117h104.407V62.395H80.899V134.117z
				"/>
		</g>
		<g>
			<g>
				<rect x="91.815" y="70.93" style="fill:#FFFFFF;" width="82.575" height="54.652"/>
			</g>
			<g>
				<g>
					<path style="fill:#E0E0E0;" d="M174.39,70.93c0,0-0.142,0.009-0.407,0.014c-0.28,0.003-0.668,0.008-1.174,0.014
						c-1.046,0.007-2.565,0.016-4.535,0.029c-3.966,0.015-9.733,0.037-17.016,0.064c-14.562,0.029-35.174,0.07-59.442,0.118
						l0.239-0.239c0.007,16.698,0.014,35.199,0.021,54.645v0.006l-0.26-0.26c31.149,0.02,59.868,0.038,82.574,0.053l-0.207,0.207
						c0.046-16.631,0.083-30.268,0.109-39.764c0.023-4.746,0.041-8.454,0.053-10.996c0.01-1.256,0.018-2.22,0.023-2.889
						C174.375,71.278,174.39,70.93,174.39,70.93s0.015,0.318,0.022,0.959c0.005,0.66,0.013,1.612,0.023,2.851
						c0.012,2.531,0.03,6.223,0.053,10.949c0.026,9.527,0.064,23.207,0.109,39.893l0.001,0.208l-0.208,0
						c-22.706,0.015-51.425,0.033-82.574,0.053l-0.26,0v-0.261v-0.006c0.008-19.446,0.015-37.947,0.021-54.645l0-0.239l0.239,0
						c24.332,0.048,44.998,0.089,59.599,0.118c7.26,0.028,13.009,0.049,16.962,0.064c1.949,0.012,3.452,0.022,4.487,0.029
						c0.494,0.006,0.874,0.011,1.147,0.014C174.266,70.921,174.39,70.93,174.39,70.93z"/>
				</g>
			</g>
		</g>
		<g>
			<g>
				<path style="fill:#E0E0E0;" d="M80.399,61.691c0.044-0.057,0.734,0.396,1.812,1.174c1.078,0.779,2.547,1.883,4.132,3.152
					c1.586,1.27,2.98,2.47,3.962,3.369c0.982,0.899,1.556,1.492,1.51,1.545c-0.098,0.111-2.632-1.979-5.798-4.507
					C82.85,63.898,80.306,61.81,80.399,61.691z"/>
			</g>
		</g>
		<g>
			<g>
				<path style="fill:#E0E0E0;" d="M185.806,61.895c0.089,0.113-2.394,2.227-5.546,4.722c-3.153,2.495-5.781,4.426-5.87,4.314
					c-0.089-0.113,2.394-2.227,5.547-4.722C183.089,63.714,185.717,61.782,185.806,61.895z"/>
			</g>
		</g>
		<g>
			<g>
				<path style="fill:#FFFFFF;" d="M185.723,134.627c-3.917-3.175-7.835-6.35-11.752-9.525"/>
			</g>
			<g>
				<g>
					<path style="fill:#E0E0E0;" d="M173.97,125.102c0.09-0.112,2.795,1.93,6.04,4.56c3.246,2.631,5.803,4.854,5.713,4.965
						c-0.09,0.112-2.794-1.93-6.04-4.561C176.437,127.437,173.88,125.214,173.97,125.102z"/>
				</g>
			</g>
		</g>
		<g>
			<g>
				<path style="fill:#E0E0E0;" d="M80.399,134.617c-0.089-0.113,2.368-2.205,5.488-4.672c3.121-2.468,5.722-4.377,5.812-4.264
					c0.089,0.113-2.368,2.204-5.489,4.673C83.09,132.82,80.488,134.73,80.399,134.617z"/>
			</g>
		</g>
		<g>
			
				<rect x="125.41" y="71.128" transform="matrix(6.123234e-17 -1 1 6.123234e-17 37.4528 231.6669)" style="fill:#E0E0E0;" width="18.299" height="51.957"/>
		</g>
	</g>
	<g>
		<g>
			<rect x="561.155" y="59.464" style="fill:#E0E0E0;" width="105.055" height="152.273"/>
		</g>
		<g>
			<rect x="555.892" y="59.464" style="fill:#F5F5F5;" width="105.055" height="152.273"/>
		</g>
		<g>
			<g>
				<rect x="568.945" y="75.957" style="fill:#FFFFFF;" width="78.951" height="119.289"/>
			</g>
			<g>
				<g>
					<path style="fill:#E0E0E0;" d="M647.896,195.246c0,0-0.01-0.202-0.016-0.583c-0.004-0.394-0.009-0.956-0.016-1.691
						c-0.007-1.499-0.018-3.694-0.032-6.543c-0.016-5.717-0.04-14.049-0.07-24.573c-0.032-21.035-0.076-50.821-0.129-85.898
						l0.262,0.262c-24.121,0.007-50.849,0.015-78.941,0.024h-0.009l0.286-0.286c-0.022,45.001-0.042,86.492-0.058,119.289
						l-0.228-0.227c24.044,0.05,43.752,0.091,57.466,0.12c6.86,0.025,12.217,0.045,15.877,0.058c1.819,0.011,3.212,0.02,4.167,0.025
						C647.398,195.229,647.896,195.246,647.896,195.246s-0.465,0.016-1.393,0.025c-0.946,0.006-2.325,0.014-4.125,0.025
						c-3.648,0.013-8.988,0.033-15.826,0.058c-13.748,0.029-33.505,0.07-57.607,0.12l-0.228,0.001l0-0.228
						c-0.016-32.797-0.036-74.288-0.058-119.289l0-0.286h0.286h0.009c28.092,0.008,54.82,0.016,78.941,0.024l0.263,0l0,0.262
						c-0.053,35.147-0.097,64.993-0.129,86.07c-0.03,10.499-0.054,18.81-0.07,24.514c-0.014,2.826-0.024,5.003-0.032,6.491
						c-0.007,0.723-0.012,1.275-0.016,1.662C647.906,195.064,647.896,195.246,647.896,195.246z"/>
				</g>
			</g>
		</g>
		<g>
			<g>
				<path style="fill:none;stroke:#FBFBFB;stroke-width:0.25;stroke-miterlimit:10;" d="M644.235,76.753"/>
			</g>
		</g>
		<g>
			<g>
				<path style="fill:#E0E0E0;" d="M661.243,59.464c0.061,0.048-0.652,1.089-1.872,2.721c-1.221,1.632-2.953,3.852-4.929,6.252
					c-1.978,2.401-3.825,4.526-5.193,6.037c-1.368,1.511-2.253,2.41-2.311,2.359c-0.06-0.053,0.717-1.046,2.005-2.622
					c1.408-1.709,3.141-3.811,5.058-6.137c1.914-2.326,3.646-4.429,5.053-6.139C660.353,60.368,661.179,59.415,661.243,59.464z"/>
			</g>
		</g>
		<g>
			<g>
				<path style="fill:#FFFFFF;" d="M648.298,194.861c3.921,6.235,8.55,12.025,13.77,17.221"/>
			</g>
			<g>
				<g>
					<path style="fill:#E0E0E0;" d="M662.068,212.083c-0.052,0.053-0.989-0.761-2.401-2.184c-1.412-1.422-3.282-3.469-5.194-5.859
						c-1.911-2.392-3.496-4.667-4.573-6.357c-1.078-1.69-1.665-2.783-1.602-2.822c0.071-0.045,0.778,0.971,1.937,2.596
						c1.158,1.626,2.786,3.849,4.685,6.227c1.901,2.375,3.712,4.451,5.043,5.939C661.292,211.11,662.127,212.023,662.068,212.083z"
						/>
				</g>
			</g>
		</g>
		<g>
			<g>
				<path style="fill:#FFFFFF;" d="M555.877,211.617c4.587-5.659,9.174-11.319,13.761-16.978"/>
			</g>
			<g>
				<g>
					<path style="fill:#E0E0E0;" d="M569.638,194.639c0.123,0.099-2.859,3.981-6.658,8.668c-3.801,4.689-6.98,8.409-7.103,8.309
						c-0.122-0.099,2.858-3.98,6.659-8.669C566.335,198.26,569.515,194.54,569.638,194.639z"/>
				</g>
			</g>
		</g>
		<g>
			<g>
				<path style="fill:#E0E0E0;" d="M555.892,59.464c0.124-0.098,3.114,3.477,6.679,7.984c3.566,4.509,6.355,8.242,6.231,8.34
					c-0.124,0.098-3.114-3.477-6.68-7.985C558.558,63.296,555.769,59.562,555.892,59.464z"/>
			</g>
		</g>
		<g>
			<rect x="596.862" y="100.177" style="fill:#E0E0E0;" width="26.436" height="75.059"/>
		</g>
	</g>
	<g>
		<g>
			<rect x="472.228" y="36.847" style="fill:#E0E0E0;" width="57.273" height="83.015"/>
		</g>
		<g>
			<rect x="469.359" y="36.847" style="fill:#F5F5F5;" width="57.273" height="83.015"/>
		</g>
		<g>
			<g>
				<rect x="476.475" y="45.838" style="fill:#FFFFFF;" width="43.042" height="65.033"/>
			</g>
			<g>
				<g>
					<path style="fill:#E0E0E0;" d="M519.516,110.871c0,0-0.006-0.11-0.008-0.318c-0.002-0.215-0.005-0.521-0.008-0.922
						c-0.004-0.817-0.01-2.014-0.017-3.567c-0.009-3.117-0.022-7.659-0.039-13.396c-0.017-11.467-0.042-27.706-0.07-46.829
						l0.143,0.143c-13.15,0.004-27.721,0.008-43.036,0.013h-0.005l0.156-0.156c-0.012,24.533-0.023,47.153-0.032,65.033
						l-0.124-0.124c13.108,0.027,23.852,0.05,31.329,0.065c3.74,0.014,6.66,0.024,8.655,0.032c0.992,0.006,1.751,0.011,2.272,0.014
						C519.245,110.862,519.516,110.871,519.516,110.871s-0.253,0.009-0.759,0.013c-0.516,0.003-1.267,0.008-2.249,0.014
						c-1.989,0.007-4.9,0.018-8.628,0.032c-7.495,0.016-18.266,0.038-31.406,0.065l-0.124,0l0-0.124
						c-0.009-17.88-0.02-40.5-0.032-65.033l0-0.156h0.156h0.005c15.315,0.005,29.887,0.009,43.036,0.013h0.143l0,0.143
						c-0.029,19.161-0.053,35.432-0.07,46.923c-0.016,5.724-0.029,10.255-0.038,13.364c-0.008,1.541-0.013,2.728-0.017,3.538
						c-0.004,0.394-0.007,0.695-0.008,0.906C519.522,110.772,519.516,110.871,519.516,110.871z"/>
				</g>
			</g>
		</g>
		<g>
			<g>
				<path style="fill:none;stroke:#FBFBFB;stroke-width:0.25;stroke-miterlimit:10;" d="M517.521,46.272"/>
			</g>
		</g>
		<g>
			<g>
				<path style="fill:#E0E0E0;" d="M526.793,36.847c0.034,0.026-0.355,0.593-1.021,1.483c-0.665,0.89-1.61,2.1-2.687,3.409
					c-1.078,1.309-2.085,2.467-2.831,3.291c-0.746,0.823-1.228,1.314-1.26,1.286c-0.033-0.029,0.391-0.57,1.093-1.43
					c0.768-0.931,1.713-2.078,2.758-3.346c1.044-1.268,1.988-2.415,2.755-3.347C526.308,37.34,526.758,36.82,526.793,36.847z"/>
			</g>
		</g>
		<g>
			<g>
				<path style="fill:#FFFFFF;" d="M519.736,110.661c2.138,3.399,4.661,6.556,7.507,9.389"/>
			</g>
			<g>
				<g>
					<path style="fill:#E0E0E0;" d="M527.243,120.05c-0.028,0.029-0.539-0.415-1.309-1.191c-0.77-0.775-1.789-1.891-2.832-3.194
						c-1.042-1.304-1.906-2.544-2.493-3.466c-0.588-0.921-0.908-1.517-0.873-1.538c0.039-0.024,0.424,0.529,1.056,1.415
						c0.631,0.886,1.518,2.098,2.554,3.395c1.036,1.295,2.023,2.427,2.749,3.238C526.82,119.52,527.275,120.018,527.243,120.05z"/>
				</g>
			</g>
		</g>
		<g>
			<g>
				<path style="fill:#FFFFFF;" d="M469.351,119.796c2.501-3.085,5.001-6.171,7.502-9.256"/>
			</g>
			<g>
				<g>
					<path style="fill:#E0E0E0;" d="M476.852,110.54c0.067,0.054-1.558,2.17-3.63,4.726c-2.072,2.557-3.805,4.584-3.872,4.53
						c-0.067-0.054,1.558-2.17,3.63-4.726C475.052,112.515,476.786,110.486,476.852,110.54z"/>
				</g>
			</g>
		</g>
		<g>
			<g>
				<path style="fill:#E0E0E0;" d="M469.359,36.847c0.068-0.053,1.698,1.896,3.641,4.353c1.944,2.458,3.465,4.493,3.397,4.546
					c-0.067,0.053-1.698-1.895-3.641-4.353C470.813,38.936,469.292,36.9,469.359,36.847z"/>
			</g>
		</g>
		<g>
			<rect x="491.694" y="59.042" style="fill:#E0E0E0;" width="14.412" height="40.92"/>
		</g>
	</g>
</g>
<g id="Background_Simple" style="display:none;">
	<path style="display:inline;fill:#F5F5F5;" d="M621.853,43.611c-23.099-14.025-51.364-21.147-77.607-14.7
		c-51.005,12.531-77.722,68.867-122.595,96.161c-31.352,19.07-59.015,24.059-95.691,22.866
		c-36.677-1.192-79.202-20.921-115.796-18.193c-36.595,2.728-79.248,27.895-102.99,55.875
		c-18.676,22.01-26.728,52.648-21.285,80.996c1.166,6.075,2.129,21.543,6.28,29.402c24.504,46.4,73.786,85.269,126.201,87.726
		l128.551,9.474c5.153,0.38,10.326,0.584,15.493,0.599c85.406,0.249,136.205-7.957,196.045-32.665
		c61.685-25.471,113.894-77.893,129.882-142.686C704.329,153.674,678.899,78.246,621.853,43.611z"/>
</g>
<g id="Floor">
	<g>
		<path style="fill:#263238;" d="M720.162,452.498c0,0.144-154.547,0.26-345.145,0.26c-190.665,0-345.178-0.117-345.178-0.26
			s154.513-0.26,345.178-0.26C565.615,452.238,720.162,452.355,720.162,452.498z"/>
	</g>
</g>
<g id="Blocks">
	<g>
		<g>
			<g>
				<polygon style="fill:#E8505B;" points="646.195,452.506 561.933,452.537 562.65,368.281 646.906,368.998 				"/>
			</g>
			<g style="opacity:0.4;">
				<path style="fill:#FFFFFF;" d="M646.82,379.056c0.032,0.048-13.509,9.222-30.242,20.49
					c-16.738,11.271-30.329,20.366-30.361,20.319s13.507-9.22,30.245-20.491C633.194,388.106,646.788,379.009,646.82,379.056z"/>
			</g>
			<g style="opacity:0.4;">
				<path style="fill:#FFFFFF;" d="M646.053,398.474c0.032,0.048-13.509,9.222-30.242,20.49
					c-16.738,11.271-30.329,20.366-30.361,20.318c-0.032-0.048,13.507-9.22,30.245-20.491
					C632.427,407.523,646.021,398.426,646.053,398.474z"/>
			</g>
			<g style="opacity:0.4;">
				<path style="fill:#FFFFFF;" d="M646.495,417.232c0.032,0.048-11.707,8.008-26.216,17.779
					c-14.515,9.773-26.303,17.655-26.335,17.607c-0.032-0.048,11.704-8.007,26.219-17.78
					C634.672,425.068,646.463,417.185,646.495,417.232z"/>
			</g>
			<g style="opacity:0.4;">
				<path style="fill:#FFFFFF;" d="M628.977,368.846c0.032,0.048-9.601,6.591-21.514,14.612
					c-11.917,8.024-21.6,14.488-21.632,14.441c-0.032-0.048,9.599-6.589,21.516-14.613
					C619.26,375.264,628.945,368.798,628.977,368.846z"/>
			</g>
			<g style="opacity:0.4;">
				<path style="fill:#FFFFFF;" d="M646.1,437.371c0.033,0.047-4.885,3.598-10.985,7.932c-6.102,4.335-11.073,7.809-11.107,7.763
					c-0.033-0.047,4.884-3.598,10.986-7.932C641.094,440.799,646.067,437.324,646.1,437.371z"/>
			</g>
			
				<rect x="502.242" y="368.127" transform="matrix(1 0.0085 -0.0085 1 3.5098 -4.6162)" style="fill:#E8505B;" width="84.258" height="84.258"/>
		</g>
		
			<rect x="502.242" y="368.127" transform="matrix(1 0.0085 -0.0085 1 3.5098 -4.6162)" style="opacity:0.2;fill:#FFFFFF;" width="84.258" height="84.258"/>
	</g>
	<g>
		
			<rect x="645.582" y="369.229" transform="matrix(1 0.0085 -0.0085 1 3.5208 -5.8299)" style="fill:#263238;" width="82.919" height="83.426"/>
		<polygon style="fill:#455A64;" points="669.009,452.617 586.088,452.498 586.804,368.374 669.72,369.08 		"/>
		<g>
			<path style="fill:#455A64;" d="M728.729,379.481c0.032,0.048-13.294,9.077-29.76,20.165
				c-16.472,11.092-29.847,20.042-29.879,19.994s13.291-9.075,29.763-20.167C715.319,388.385,728.697,379.433,728.729,379.481z"/>
		</g>
		<g>
			<path style="fill:#455A64;" d="M727.974,398.59c0.032,0.048-13.294,9.077-29.76,20.165
				c-16.472,11.092-29.847,20.042-29.88,19.994c-0.032-0.048,13.291-9.075,29.763-20.167
				C714.564,407.494,727.942,398.542,727.974,398.59z"/>
		</g>
		<g>
			<path style="fill:#455A64;" d="M728.41,417.05c0.032,0.048-11.52,7.883-25.798,17.497c-14.284,9.618-25.885,17.374-25.917,17.326
				c-0.032-0.048,11.517-7.881,25.801-17.499C716.774,424.759,728.378,417.002,728.41,417.05z"/>
		</g>
		<g>
			<path style="fill:#455A64;" d="M711.17,369.432c0.032,0.048-9.447,6.487-21.171,14.381c-11.727,7.897-21.257,14.257-21.289,14.21
				c-0.032-0.048,9.445-6.486,21.173-14.382C701.606,375.747,711.138,369.385,711.17,369.432z"/>
		</g>
		<g>
			<path style="fill:#455A64;" d="M728.021,436.868c0.033,0.047-4.807,3.543-10.809,7.807c-6.004,4.266-10.897,7.685-10.931,7.638
				c-0.033-0.047,4.806-3.542,10.81-7.808C723.094,440.241,727.988,436.821,728.021,436.868z"/>
		</g>
	</g>
	<g>
		<path style="fill:#E8505B;" d="M238.749,197.849v89.107h76.662c0-24.606,19.947-44.554,44.554-44.554
			c24.606,0,44.554,19.947,44.554,44.554h76.036v-89.107H238.749z"/>
		<path style="opacity:0.4;" d="M238.749,197.849v89.107h76.662c0-24.606,19.947-44.554,44.554-44.554
			c24.606,0,44.554,19.947,44.554,44.554h76.036v-89.107H238.749z"/>
		<path style="fill:#E8505B;" d="M183.613,197.849v89.107h76.662c0-24.606,19.947-44.554,44.554-44.554
			c24.606,0,44.554,19.947,44.554,44.554h76.036v-89.107H183.613z"/>
		<g>
			<path style="fill:#E8505B;" d="M480.555,202.65c0.033,0.047-12.206,8.497-27.331,18.87c-15.131,10.377-27.419,18.747-27.451,18.7
				c-0.033-0.047,12.203-8.495,27.334-18.872C468.232,210.975,480.523,202.603,480.555,202.65z"/>
		</g>
		<g>
			<path style="fill:#E8505B;" d="M481.01,219.668c0.033,0.047-12.206,8.497-27.331,18.87c-15.131,10.377-27.419,18.747-27.451,18.7
				c-0.033-0.047,12.203-8.495,27.334-18.872C468.687,227.993,480.978,219.62,481.01,219.668z"/>
		</g>
		<g>
			<path style="fill:#E8505B;" d="M480.463,237.327c0.033,0.047-12.206,8.497-27.331,18.87
				c-15.131,10.377-27.419,18.747-27.451,18.7c-0.033-0.047,12.203-8.495,27.334-18.872
				C468.14,245.652,480.431,237.28,480.463,237.327z"/>
		</g>
		<g>
			<path style="fill:#E8505B;" d="M480.016,254.378c0.033,0.047-10.576,7.379-23.692,16.374
				c-13.12,8.998-23.779,16.251-23.812,16.204c-0.033-0.047,10.574-7.378,23.694-16.376
				C469.322,261.586,479.984,254.331,480.016,254.378z"/>
		</g>
		<g>
			<path style="fill:#E8505B;" d="M457.917,197.849c0,0-0.105,0.09-0.318,0.243c-0.264,0.188-0.571,0.406-0.933,0.664
				c-0.893,0.623-2.055,1.433-3.455,2.41c-3.004,2.07-7.013,4.832-11.443,7.885c-4.446,3.035-8.467,5.779-11.48,7.836
				c-1.415,0.954-2.59,1.746-3.492,2.355c-0.371,0.245-0.685,0.453-0.956,0.632c-0.22,0.143-0.341,0.209-0.341,0.209
				s0.105-0.089,0.317-0.243c0.264-0.188,0.571-0.406,0.933-0.664c0.893-0.623,2.055-1.433,3.455-2.409
				c3.004-2.07,7.013-4.832,11.445-7.886c4.444-3.033,8.465-5.778,11.478-7.835c1.415-0.954,2.59-1.746,3.493-2.355
				c0.371-0.245,0.685-0.453,0.956-0.632C457.796,197.915,457.917,197.849,457.917,197.849z"/>
		</g>
		<g>
			<path style="fill:#E8505B;" d="M326.068,247.636c0.033,0.048-12.777,8.889-28.607,19.745
				c-15.836,10.86-28.696,19.623-28.728,19.575c-0.033-0.047,12.774-8.887,28.61-19.747
				C313.173,256.353,326.036,247.588,326.068,247.636z"/>
		</g>
		<g>
			<path style="fill:#E8505B;" d="M318.766,269.974c0.004,0.006-0.079,0.071-0.24,0.19c-0.212,0.153-0.446,0.32-0.711,0.511
				c-0.712,0.499-1.593,1.117-2.635,1.847c-2.333,1.61-5.374,3.708-8.737,6.029c-3.377,2.302-6.431,4.383-8.773,5.98
				c-1.057,0.709-1.95,1.308-2.672,1.792c-0.273,0.178-0.514,0.336-0.733,0.479c-0.169,0.107-0.259,0.161-0.263,0.155
				c-0.004-0.006,0.079-0.071,0.24-0.19c0.212-0.153,0.445-0.32,0.71-0.511c0.712-0.499,1.593-1.117,2.635-1.847
				c2.333-1.61,5.375-3.709,8.739-6.03c3.376-2.301,6.43-4.382,8.772-5.979c1.057-0.709,1.95-1.308,2.672-1.792
				c0.273-0.178,0.514-0.336,0.733-0.479C318.671,270.021,318.762,269.968,318.766,269.974z"/>
		</g>
		<g>
			<path style="fill:#E8505B;" d="M303.43,242.834c0.033,0.048-8.871,6.21-19.885,13.763c-11.017,7.556-19.972,13.64-20.005,13.593
				c-0.033-0.047,8.87-6.209,19.887-13.765C294.441,248.873,303.398,242.787,303.43,242.834z"/>
		</g>
		<g>
			<path style="fill:#E8505B;" d="M480.807,272.691c0.034,0.047-4.408,3.317-9.92,7.304c-5.514,3.988-10.009,7.182-10.043,7.136
				c-0.034-0.047,4.407-3.316,9.921-7.304C476.277,275.839,480.773,272.644,480.807,272.691z"/>
		</g>
	</g>
	<g>
		<rect x="416.493" y="286.956" style="fill:#263238;" width="76.607" height="76.607"/>
		<rect x="361.896" y="286.956" style="fill:#455A64;" width="76.607" height="76.607"/>
		<g>
			<path style="fill:#455A64;" d="M493.1,296.102c0.033,0.048-12.206,8.497-27.331,18.87c-15.131,10.377-27.419,18.747-27.452,18.7
				c-0.033-0.048,12.203-8.495,27.334-18.872C480.777,304.427,493.068,296.054,493.1,296.102z"/>
		</g>
		<g>
			<path style="fill:#455A64;" d="M492.553,313.761c0.033,0.047-12.206,8.497-27.331,18.87
				c-15.131,10.377-27.419,18.747-27.452,18.7c-0.033-0.047,12.203-8.495,27.334-18.872
				C480.23,322.086,492.521,313.714,492.553,313.761z"/>
		</g>
		<g>
			<path style="fill:#455A64;" d="M493.1,330.812c0.033,0.047-10.576,7.379-23.692,16.374c-13.12,8.998-23.779,16.251-23.812,16.204
				c-0.033-0.047,10.574-7.378,23.694-16.376C482.407,338.02,493.068,330.765,493.1,330.812z"/>
		</g>
		<g>
			<path style="fill:#455A64;" d="M476.799,286.956c0.033,0.047-8.673,6.074-19.441,13.459
				c-10.772,7.387-19.528,13.336-19.561,13.288c-0.033-0.047,8.671-6.073,19.443-13.46
				C468.009,292.859,476.767,286.909,476.799,286.956z"/>
		</g>
		<g>
			<path style="fill:#455A64;" d="M492.897,349.124c0.034,0.047-4.408,3.317-9.92,7.304c-5.514,3.988-10.009,7.182-10.043,7.136
				c-0.034-0.047,4.407-3.316,9.921-7.304C488.367,352.273,492.863,349.078,492.897,349.124z"/>
		</g>
	</g>
	<g>
		<rect x="247.608" y="286.956" style="fill:#263238;" width="76.607" height="76.607"/>
		<rect x="193.011" y="286.956" style="fill:#455A64;" width="76.607" height="76.607"/>
		<g>
			<path style="fill:#455A64;" d="M324.215,296.102c0.033,0.048-12.205,8.497-27.331,18.87
				c-15.131,10.377-27.419,18.747-27.451,18.7c-0.033-0.048,12.203-8.495,27.334-18.872
				C311.892,304.427,324.183,296.054,324.215,296.102z"/>
		</g>
		<g>
			<path style="fill:#455A64;" d="M323.668,313.761c0.033,0.047-12.206,8.497-27.331,18.87
				c-15.131,10.377-27.419,18.747-27.451,18.7c-0.033-0.047,12.203-8.495,27.334-18.872
				C311.345,322.086,323.636,313.714,323.668,313.761z"/>
		</g>
		<g>
			<path style="fill:#455A64;" d="M324.215,330.812c0.033,0.047-10.576,7.379-23.692,16.374
				c-13.12,8.998-23.779,16.251-23.812,16.204c-0.033-0.047,10.574-7.378,23.694-16.376
				C313.522,338.02,324.183,330.765,324.215,330.812z"/>
		</g>
		<g>
			<path style="fill:#455A64;" d="M307.914,286.956c0.033,0.047-8.673,6.074-19.441,13.459
				c-10.772,7.387-19.528,13.336-19.561,13.288c-0.033-0.047,8.671-6.073,19.443-13.46
				C299.124,292.859,307.882,286.909,307.914,286.956z"/>
		</g>
		<g>
			<path style="fill:#455A64;" d="M324.012,349.124c0.034,0.047-4.408,3.317-9.92,7.304c-5.514,3.988-10.009,7.182-10.043,7.136
				c-0.034-0.047,4.407-3.316,9.921-7.304C319.482,352.273,323.978,349.078,324.012,349.124z"/>
		</g>
	</g>
	<g>
		<rect x="425.419" y="363.564" style="fill:#E8505B;" width="54.05" height="89.107"/>
		<rect x="425.419" y="363.564" style="opacity:0.4;" width="54.05" height="89.107"/>
		<rect x="183.613" y="363.564" style="fill:#E8505B;" width="241.806" height="89.107"/>
		<g>
			<path style="fill:#E8505B;" d="M479.026,368.648c0.033,0.047-11.882,8.451-26.609,18.768
				c-14.732,10.321-26.698,18.646-26.731,18.599c-0.033-0.047,11.879-8.449,26.612-18.77
				C467.024,376.928,478.993,368.601,479.026,368.648z"/>
		</g>
		<g>
			<path style="fill:#E8505B;" d="M479.469,385.573c0.033,0.047-11.882,8.451-26.609,18.768
				c-14.732,10.321-26.698,18.646-26.731,18.599c-0.033-0.047,11.879-8.449,26.612-18.77
				C467.468,393.854,479.436,385.526,479.469,385.573z"/>
		</g>
		<g>
			<path style="fill:#E8505B;" d="M478.936,403.138c0.033,0.047-11.882,8.451-26.609,18.768
				c-14.732,10.321-26.698,18.646-26.731,18.599c-0.033-0.047,11.879-8.449,26.612-18.77
				C466.935,411.418,478.903,403.09,478.936,403.138z"/>
		</g>
		<g>
			<path style="fill:#E8505B;" d="M478.501,420.096c0.033,0.047-10.295,7.339-23.066,16.286
				c-12.775,8.949-23.154,16.164-23.188,16.117c-0.033-0.047,10.293-7.338,23.068-16.287
				C468.086,427.265,478.468,420.049,478.501,420.096z"/>
		</g>
		<g>
			<path style="fill:#E8505B;" d="M456.984,363.872c0,0-0.102,0.089-0.309,0.242c-0.258,0.188-0.557,0.405-0.908,0.66
				c-0.872,0.621-2.003,1.427-3.363,2.397c-2.928,2.061-6.829,4.807-11.142,7.842c-4.327,3.017-8.241,5.746-11.178,7.794
				c-1.376,0.947-2.52,1.735-3.401,2.342c-0.36,0.243-0.666,0.45-0.931,0.628c-0.214,0.142-0.333,0.207-0.333,0.207
				s0.102-0.089,0.309-0.242c0.258-0.188,0.557-0.405,0.908-0.66c0.872-0.621,2.003-1.427,3.363-2.396
				c2.928-2.061,6.829-4.807,11.143-7.844c4.326-3.016,8.239-5.745,11.176-7.792c1.376-0.948,2.52-1.735,3.401-2.342
				c0.36-0.243,0.666-0.45,0.931-0.628C456.865,363.938,456.984,363.872,456.984,363.872z"/>
		</g>
		<g>
			<path style="fill:#E8505B;" d="M479.271,438.31c0.034,0.046-4.29,3.299-9.656,7.264c-5.369,3.967-9.747,7.144-9.781,7.097
				c-0.034-0.046,4.289-3.298,9.657-7.265C474.857,441.441,479.237,438.263,479.271,438.31z"/>
		</g>
	</g>
	<g>
		<g>
			<g>
				<polygon style="fill:#E8505B;" points="233.728,197.932 506.71,197.531 370.019,62.121 308.679,62.211 				"/>
				<polygon style="fill:#E8505B;" points="172.388,198.023 445.37,197.621 308.679,62.211 				"/>
			</g>
			<g style="opacity:0.4;">
				<g>
					<path style="fill:#FFFFFF;" d="M450.316,141.665c0,0-0.118,0.098-0.354,0.269c-0.288,0.205-0.631,0.448-1.04,0.739
						c-0.98,0.684-2.277,1.59-3.846,2.686c-3.327,2.299-7.796,5.386-12.735,8.798c-4.954,3.394-9.435,6.464-12.771,8.749
						c-1.585,1.074-2.894,1.961-3.884,2.632c-0.418,0.278-0.768,0.511-1.062,0.707c-0.244,0.16-0.378,0.235-0.378,0.235
						s0.118-0.098,0.354-0.269c0.288-0.205,0.63-0.448,1.04-0.739c0.98-0.684,2.277-1.59,3.846-2.686
						c3.327-2.299,7.796-5.386,12.737-8.799c4.952-3.393,9.433-6.462,12.769-8.748c1.585-1.074,2.895-1.961,3.884-2.632
						c0.418-0.278,0.768-0.511,1.062-0.707C450.182,141.74,450.316,141.665,450.316,141.665z"/>
				</g>
				<g>
					<path style="fill:#FFFFFF;" d="M463.36,154.87c0,0-0.118,0.099-0.355,0.269c-0.288,0.205-0.631,0.448-1.04,0.739
						c-0.98,0.684-2.277,1.59-3.846,2.686c-3.327,2.299-7.796,5.386-12.734,8.798c-4.954,3.394-9.435,6.464-12.771,8.749
						c-1.585,1.074-2.894,1.961-3.884,2.632c-0.418,0.278-0.768,0.511-1.062,0.707c-0.244,0.16-0.378,0.235-0.378,0.235
						s0.118-0.099,0.354-0.269c0.288-0.205,0.631-0.448,1.04-0.739c0.98-0.684,2.276-1.59,3.846-2.686
						c3.327-2.299,7.796-5.386,12.737-8.799c4.952-3.393,9.433-6.462,12.769-8.748c1.585-1.074,2.895-1.961,3.884-2.632
						c0.418-0.278,0.768-0.511,1.062-0.707C463.226,154.945,463.36,154.87,463.36,154.87z"/>
				</g>
				<g>
					<path style="fill:#FFFFFF;" d="M475.991,167.542c0,0-0.118,0.099-0.354,0.27c-0.288,0.205-0.631,0.448-1.04,0.739
						c-0.98,0.684-2.277,1.59-3.846,2.686c-3.327,2.299-7.796,5.386-12.735,8.798c-4.954,3.394-9.435,6.464-12.771,8.749
						c-1.585,1.074-2.894,1.961-3.884,2.632c-0.418,0.278-0.768,0.511-1.062,0.707c-0.244,0.16-0.378,0.235-0.378,0.235
						s0.118-0.099,0.354-0.269c0.288-0.205,0.63-0.448,1.04-0.739c0.98-0.684,2.277-1.59,3.846-2.686
						c3.327-2.299,7.796-5.386,12.737-8.799c4.952-3.393,9.433-6.462,12.769-8.748c1.585-1.074,2.895-1.961,3.884-2.632
						c0.418-0.278,0.768-0.511,1.062-0.707C475.857,167.617,475.991,167.542,475.991,167.542z"/>
				</g>
				<g>
					<path style="fill:#FFFFFF;" d="M489.682,180.662c0.004,0.006-0.077,0.07-0.234,0.187c-0.208,0.15-0.437,0.316-0.695,0.502
						c-0.7,0.492-1.561,1.098-2.579,1.814c-2.287,1.583-5.262,3.643-8.552,5.921c-3.304,2.259-6.292,4.301-8.588,5.871
						c-1.032,0.694-1.906,1.282-2.616,1.76c-0.267,0.174-0.502,0.329-0.717,0.47c-0.165,0.105-0.254,0.158-0.258,0.152
						c-0.004-0.006,0.077-0.07,0.234-0.187c0.208-0.15,0.437-0.315,0.695-0.502c0.7-0.492,1.561-1.098,2.579-1.814
						c2.287-1.583,5.263-3.643,8.554-5.922c3.303-2.258,6.29-4.3,8.587-5.87c1.032-0.694,1.907-1.282,2.616-1.76
						c0.267-0.175,0.502-0.329,0.717-0.47C489.589,180.709,489.677,180.656,489.682,180.662z"/>
				</g>
				<g>
					<path style="fill:#FFFFFF;" d="M437.006,128.461c0,0-0.118,0.099-0.354,0.269c-0.288,0.205-0.631,0.448-1.04,0.739
						c-0.98,0.684-2.277,1.59-3.846,2.686c-3.327,2.299-7.796,5.386-12.735,8.798c-4.954,3.394-9.435,6.464-12.771,8.749
						c-1.585,1.074-2.894,1.961-3.884,2.632c-0.418,0.278-0.768,0.511-1.062,0.707c-0.244,0.16-0.378,0.235-0.378,0.235
						s0.118-0.098,0.354-0.269c0.288-0.205,0.631-0.448,1.04-0.739c0.98-0.684,2.277-1.59,3.846-2.686
						c3.327-2.299,7.796-5.386,12.737-8.8c4.952-3.392,9.433-6.462,12.769-8.748c1.585-1.074,2.895-1.962,3.884-2.632
						c0.418-0.278,0.768-0.511,1.062-0.707C436.872,128.536,437.006,128.461,437.006,128.461z"/>
				</g>
				<g>
					<path style="fill:#FFFFFF;" d="M423.696,115.257c0,0-0.118,0.098-0.355,0.269c-0.288,0.205-0.631,0.448-1.04,0.739
						c-0.98,0.684-2.277,1.59-3.846,2.686c-3.327,2.299-7.796,5.386-12.735,8.798c-4.954,3.394-9.435,6.464-12.771,8.749
						c-1.585,1.074-2.894,1.961-3.884,2.632c-0.418,0.278-0.768,0.511-1.062,0.707c-0.244,0.16-0.378,0.235-0.378,0.235
						s0.118-0.098,0.355-0.269c0.288-0.205,0.63-0.448,1.04-0.739c0.98-0.684,2.277-1.59,3.846-2.686
						c3.327-2.299,7.796-5.386,12.737-8.799c4.952-3.393,9.433-6.462,12.769-8.748c1.585-1.074,2.895-1.962,3.884-2.632
						c0.418-0.278,0.768-0.511,1.062-0.707C423.562,115.332,423.696,115.257,423.696,115.257z"/>
				</g>
				<g>
					<path style="fill:#FFFFFF;" d="M410.386,102.053c0,0-0.118,0.099-0.354,0.269c-0.288,0.205-0.631,0.448-1.04,0.739
						c-0.98,0.684-2.277,1.59-3.846,2.686c-3.327,2.299-7.796,5.386-12.735,8.798c-4.954,3.394-9.435,6.464-12.771,8.749
						c-1.585,1.074-2.894,1.961-3.884,2.632c-0.418,0.278-0.768,0.511-1.062,0.707c-0.244,0.16-0.378,0.235-0.378,0.235
						s0.118-0.098,0.354-0.269c0.288-0.205,0.63-0.448,1.04-0.739c0.98-0.684,2.277-1.59,3.846-2.686
						c3.327-2.299,7.796-5.386,12.737-8.799c4.952-3.393,9.433-6.462,12.769-8.748c1.585-1.074,2.895-1.961,3.884-2.632
						c0.418-0.278,0.768-0.511,1.062-0.707C410.251,102.128,410.386,102.053,410.386,102.053z"/>
				</g>
				<g>
					<path style="fill:#FFFFFF;" d="M397.076,88.849c0,0-0.118,0.099-0.355,0.269c-0.288,0.205-0.631,0.448-1.04,0.739
						c-0.98,0.684-2.277,1.59-3.846,2.686c-3.327,2.299-7.796,5.386-12.734,8.798c-4.954,3.394-9.435,6.464-12.771,8.749
						c-1.585,1.074-2.894,1.961-3.884,2.632c-0.418,0.278-0.768,0.511-1.062,0.707c-0.244,0.16-0.378,0.235-0.378,0.235
						s0.118-0.098,0.354-0.269c0.288-0.205,0.631-0.448,1.04-0.739c0.98-0.684,2.276-1.59,3.846-2.686
						c3.327-2.299,7.796-5.386,12.737-8.799c4.952-3.393,9.433-6.462,12.769-8.748c1.585-1.074,2.895-1.961,3.884-2.632
						c0.418-0.278,0.768-0.511,1.062-0.707C396.941,88.924,397.076,88.849,397.076,88.849z"/>
				</g>
				<g>
					<path style="fill:#FFFFFF;" d="M383.766,75.645c0,0-0.118,0.098-0.355,0.269c-0.288,0.205-0.631,0.448-1.04,0.739
						c-0.98,0.684-2.277,1.59-3.846,2.686c-3.327,2.299-7.796,5.386-12.735,8.798c-4.954,3.394-9.435,6.464-12.771,8.749
						c-1.585,1.074-2.894,1.961-3.884,2.632c-0.418,0.278-0.768,0.511-1.062,0.707c-0.244,0.16-0.378,0.235-0.378,0.235
						s0.118-0.099,0.354-0.269c0.288-0.205,0.63-0.448,1.04-0.739c0.98-0.684,2.277-1.59,3.846-2.686
						c3.327-2.299,7.796-5.386,12.737-8.799c4.952-3.393,9.433-6.462,12.769-8.748c1.585-1.074,2.895-1.961,3.884-2.632
						c0.418-0.278,0.768-0.511,1.062-0.707C383.631,75.72,383.766,75.645,383.766,75.645z"/>
				</g>
				<g>
					<path style="fill:#FFFFFF;" d="M370.456,62.441c0,0-0.118,0.098-0.354,0.269c-0.288,0.205-0.631,0.448-1.04,0.739
						c-0.98,0.684-2.277,1.59-3.846,2.686c-3.327,2.299-7.796,5.386-12.735,8.798c-4.954,3.394-9.435,6.464-12.771,8.749
						c-1.585,1.074-2.894,1.961-3.884,2.632c-0.418,0.278-0.768,0.511-1.062,0.707c-0.244,0.16-0.378,0.235-0.378,0.235
						s0.118-0.099,0.354-0.269c0.288-0.205,0.631-0.448,1.04-0.739c0.98-0.684,2.277-1.59,3.846-2.686
						c3.327-2.299,7.796-5.386,12.737-8.799c4.952-3.392,9.433-6.462,12.769-8.748c1.585-1.074,2.895-1.961,3.884-2.632
						c0.418-0.278,0.768-0.511,1.062-0.707C370.321,62.516,370.456,62.441,370.456,62.441z"/>
				</g>
				<g>
					<path style="fill:#FFFFFF;" d="M337.682,62.627c0.033,0.047-3.659,2.644-8.244,5.798c-4.587,3.156-8.331,5.675-8.363,5.627
						c-0.033-0.047,3.658-2.643,8.245-5.799C333.905,65.099,337.65,62.58,337.682,62.627z"/>
				</g>
			</g>
		</g>
		<polygon style="opacity:0.2;fill:#FFFFFF;" points="172.388,198.023 445.37,197.621 308.679,62.211 		"/>
	</g>
</g>
<g id="Character_2">
	<g>
		<g>
			<g>
				<g>
					<g>
						<g>
							<g>
								<g>
									<g>
										<path style="fill:#E8505B;" d="M553.816,448.024l-0.196-8.597l-16.106,0.263l0.153,12.58l0.999,0.048
											c4.448,0.174,22.63,0.571,25.586-0.378C567.55,450.882,553.816,448.024,553.816,448.024z"/>
									</g>
								</g>
							</g>
						</g>
						<g style="opacity:0.4;">
							<g>
								<g>
									<path style="fill:#FFFFFF;" d="M560.531,449.659c0,0,4.819,1.305,4.233,2.105c-0.585,0.8-18.974,1.089-27.096,0.507
										l0.02-0.36l21.452-0.155C559.139,451.756,559.593,449.714,560.531,449.659z"/>
								</g>
							</g>
						</g>
						<g>
							<g>
								<g>
									<g>
										<path style="fill:#263238;" d="M537.435,451.905c0,0.007,0.095,0.016,0.277,0.026c0.239,0.011,0.501,0.022,0.796,0.035
											c0.796,0.022,1.774,0.049,2.929,0.08c2.474,0.05,5.892,0.074,9.667,0.018c3.776-0.057,7.193-0.183,9.664-0.307
											c1.153-0.066,2.13-0.122,2.925-0.168c0.295-0.022,0.556-0.041,0.794-0.059c0.182-0.016,0.277-0.027,0.276-0.034
											c0-0.007-0.096-0.008-0.278-0.005c-0.239,0.007-0.501,0.014-0.796,0.023c-0.795,0.029-1.773,0.064-2.927,0.106
											c-2.472,0.089-5.887,0.193-9.661,0.25c-3.773,0.056-7.19,0.054-9.663,0.039c-1.155-0.007-2.133-0.013-2.929-0.018
											c-0.296,0-0.557,0.001-0.797,0.001C537.531,451.894,537.435,451.898,537.435,451.905z"/>
									</g>
								</g>
							</g>
						</g>
						<g>
							<g>
								<g>
									<g>
										<path style="fill:#263238;" d="M559.139,452.006c0.06,0.007,0.094-0.693,0.525-1.406c0.418-0.72,1.015-1.087,0.98-1.136
											c-0.012-0.048-0.698,0.266-1.148,1.037C559.037,451.266,559.091,452.019,559.139,452.006z"/>
									</g>
								</g>
							</g>
						</g>
						<g>
							<g>
								<g>
									<g>
										<path style="fill:#263238;" d="M554.349,449.67c0.046,0.028,0.269-0.252,0.498-0.626c0.229-0.374,0.378-0.7,0.331-0.728
											c-0.046-0.028-0.269,0.252-0.498,0.626C554.452,449.316,554.303,449.642,554.349,449.67z"/>
									</g>
								</g>
							</g>
						</g>
						<g>
							<g>
								<g>
									<g>
										<path style="fill:#263238;" d="M553.034,449.001c0.037,0.039,0.288-0.134,0.562-0.388
											c0.274-0.253,0.466-0.491,0.429-0.531c-0.037-0.039-0.288,0.134-0.562,0.388
											C553.19,448.724,552.997,448.961,553.034,449.001z"/>
									</g>
								</g>
							</g>
						</g>
						<g>
							<g>
								<g>
									<g>
										<path style="fill:#263238;" d="M552.186,447.494c0,0.054,0.377,0.096,0.842,0.094c0.465-0.002,0.841-0.048,0.841-0.102
											c0-0.054-0.377-0.096-0.842-0.094C552.562,447.395,552.186,447.44,552.186,447.494z"/>
									</g>
								</g>
							</g>
						</g>
						<g>
							<g>
								<g>
									<g>
										<path style="fill:#263238;" d="M551.886,446.427c-0.017,0.048,0.396,0.227,0.942,0.258
											c0.547,0.034,0.978-0.094,0.966-0.144c-0.01-0.056-0.435-0.018-0.955-0.051
											C552.32,446.461,551.902,446.372,551.886,446.427z"/>
									</g>
								</g>
							</g>
						</g>
						<g>
							<g>
								<g>
									<g>
										<path style="fill:#263238;" d="M554.873,448.256c-0.001,0.022,0.397,0.064,1.035-0.023
											c0.318-0.043,0.694-0.125,1.098-0.26c0.2-0.075,0.411-0.132,0.627-0.27c0.101-0.07,0.214-0.168,0.251-0.326
											c0.04-0.156-0.045-0.329-0.163-0.411c-0.997-0.497-1.979,0.075-2.338,0.592c-0.198,0.264-0.286,0.52-0.327,0.696
											c-0.039,0.178-0.034,0.279-0.022,0.28c0.037,0.013,0.063-0.408,0.457-0.89c0.194-0.236,0.491-0.467,0.875-0.588
											c0.364-0.114,0.883-0.152,1.235,0.064c0.166,0.119,0.105,0.314-0.076,0.425c-0.169,0.112-0.388,0.183-0.578,0.258
											c-0.39,0.141-0.753,0.234-1.061,0.294C555.267,448.217,554.872,448.225,554.873,448.256z"/>
									</g>
								</g>
							</g>
						</g>
						<g>
							<g>
								<g>
									<g>
										<path style="fill:#263238;" d="M555.142,448.303c0.015,0.011,0.163-0.256,0.108-0.72
											c-0.029-0.228-0.117-0.498-0.295-0.752c-0.186-0.227-0.426-0.54-0.87-0.514c-0.239,0.034-0.352,0.309-0.312,0.483
											c0.022,0.181,0.106,0.335,0.183,0.46c0.158,0.256,0.335,0.462,0.499,0.618c0.329,0.312,0.588,0.429,0.599,0.409
											c0.018-0.025-0.209-0.182-0.5-0.506c-0.145-0.161-0.302-0.367-0.443-0.614c-0.146-0.216-0.249-0.608,0.01-0.659
											c0.259-0.029,0.527,0.224,0.689,0.429c0.166,0.221,0.26,0.461,0.303,0.668C555.2,448.026,555.108,448.296,555.142,448.303
											z"/>
									</g>
								</g>
							</g>
						</g>
						<g>
							<g>
								<g>
									<g>
										<path style="fill:#263238;" d="M537.694,447.493c0.004,0.036,0.461-0.051,1.19,0.023c0.722,0.069,1.73,0.349,2.613,1.029
											c0.882,0.682,1.409,1.585,1.659,2.267c0.257,0.687,0.288,1.15,0.324,1.145c0.012-0.001,0.016-0.117-0.005-0.325
											c-0.02-0.208-0.075-0.508-0.189-0.866c-0.222-0.711-0.749-1.665-1.669-2.376c-0.921-0.71-1.976-0.977-2.721-1.012
											c-0.375-0.02-0.679,0.003-0.885,0.036C537.803,447.448,537.692,447.481,537.694,447.493z"/>
									</g>
								</g>
							</g>
						</g>
						<g>
							<g>
								<g>
									<g>
										<path style="fill:#263238;" d="M539.258,440.765c-0.054,0-0.093,1.482-0.088,3.31c0.006,1.828,0.054,3.31,0.108,3.31
											c0.054,0,0.093-1.482,0.088-3.31C539.36,442.246,539.312,440.765,539.258,440.765z"/>
									</g>
								</g>
							</g>
						</g>
						<g>
							<g>
								<g>
									<g>
										<path style="fill:#263238;" d="M545.507,450.447c-0.006,0.05,1.046,0.206,2.355,0.196
											c1.309-0.006,2.359-0.175,2.352-0.226c-0.006-0.056-1.057,0.024-2.354,0.03
											C546.564,450.458,545.513,450.391,545.507,450.447z"/>
									</g>
								</g>
							</g>
						</g>
						<g>
							<g>
								<g>
									<g>
										<path style="fill:#263238;" d="M542.351,450.492c-0.039,0.04,0.09,0.221,0.201,0.461c0.115,0.238,0.173,0.452,0.229,0.448
											c0.052-0.001,0.079-0.256-0.052-0.531C542.599,450.594,542.385,450.453,542.351,450.492z"/>
									</g>
								</g>
							</g>
						</g>
						<g>
							<g>
								<g>
									<g>
										<path style="fill:#263238;" d="M541.138,449.03c-0.038,0.038,0.069,0.204,0.238,0.371c0.169,0.166,0.337,0.27,0.375,0.231
											c0.038-0.038-0.069-0.204-0.238-0.371C541.343,449.096,541.175,448.992,541.138,449.03z"/>
									</g>
								</g>
							</g>
						</g>
						<g>
							<g>
								<g>
									<g>
										<path style="fill:#263238;" d="M539.425,448.381c0.012,0.055,0.226,0.049,0.464,0.129c0.24,0.074,0.411,0.203,0.452,0.165
											c0.043-0.03-0.096-0.257-0.392-0.351C539.653,448.228,539.408,448.331,539.425,448.381z"/>
									</g>
								</g>
							</g>
						</g>
						<g>
							<g>
								<g>
									<g>
										<path style="fill:#263238;" d="M538.208,448.081c-0.019,0.05,0.075,0.132,0.21,0.181c0.134,0.05,0.259,0.049,0.277-0.001
											c0.019-0.051-0.075-0.132-0.21-0.182C538.351,448.029,538.227,448.03,538.208,448.081z"/>
									</g>
								</g>
							</g>
						</g>
					</g>
				</g>
				<g style="opacity:0.3;">
					<polygon points="537.709,447.061 553.794,446.54 553.738,444.601 537.565,446.044 					"/>
				</g>
			</g>
			<g>
				<g>
					<g>
						<g>
							<g>
								<g>
									<g>
										<path style="fill:#E8505B;" d="M568.779,446.238l2.732-8.153l-15.24-5.216l-4.124,11.886l0.924,0.384
											c4.125,1.673,21.094,8.214,24.196,8.324C580.73,453.585,568.779,446.238,568.779,446.238z"/>
									</g>
								</g>
							</g>
						</g>
						<g style="opacity:0.4;">
							<g>
								<g>
									<path style="fill:#FFFFFF;" d="M574.541,450.053c0,0,4.09,2.862,3.268,3.416c-0.822,0.554-18.218-5.412-25.661-8.714
										l0.141-0.332l20.232,7.131C572.521,451.554,573.641,449.787,574.541,450.053z"/>
								</g>
							</g>
						</g>
						<g>
							<g>
								<g>
									<g>
										<path style="fill:#263238;" d="M552.053,444.331c-0.002,0.006,0.084,0.047,0.252,0.118
											c0.221,0.091,0.463,0.191,0.737,0.303c0.741,0.29,1.653,0.648,2.728,1.069c2.31,0.886,5.518,2.068,9.088,3.296
											c3.572,1.227,6.828,2.268,9.195,2.989c1.107,0.329,2.046,0.608,2.809,0.835c0.285,0.079,0.537,0.149,0.768,0.214
											c0.176,0.047,0.269,0.068,0.271,0.062c0.002-0.006-0.088-0.04-0.26-0.099c-0.227-0.075-0.476-0.157-0.757-0.249
											c-0.758-0.243-1.69-0.541-2.789-0.894c-2.355-0.755-5.604-1.816-9.173-3.042c-3.568-1.227-6.781-2.388-9.103-3.241
											c-1.084-0.398-2.002-0.736-2.75-1.011c-0.278-0.1-0.525-0.188-0.75-0.269
											C552.147,444.353,552.056,444.325,552.053,444.331z"/>
									</g>
								</g>
							</g>
						</g>
						<g>
							<g>
								<g>
									<g>
										<path style="fill:#263238;" d="M572.436,451.789c0.054,0.026,0.324-0.62,0.971-1.145c0.638-0.536,1.323-0.679,1.308-0.737
											c0.005-0.05-0.747,0.013-1.432,0.586C572.591,451.058,572.387,451.784,572.436,451.789z"/>
									</g>
								</g>
							</g>
						</g>
						<g>
							<g>
								<g>
									<g>
										<path style="fill:#263238;" d="M568.723,447.967c0.034,0.042,0.339-0.146,0.681-0.42c0.342-0.274,0.593-0.53,0.559-0.572
											c-0.034-0.042-0.338,0.146-0.681,0.42C568.939,447.668,568.689,447.924,568.723,447.967z"/>
									</g>
								</g>
							</g>
						</g>
						<g>
							<g>
								<g>
									<g>
										<path style="fill:#263238;" d="M567.713,446.891c0.021,0.049,0.317-0.029,0.66-0.174c0.343-0.146,0.605-0.304,0.584-0.354
											c-0.021-0.05-0.317,0.028-0.66,0.174C567.953,446.683,567.692,446.842,567.713,446.891z"/>
									</g>
								</g>
							</g>
						</g>
						<g>
							<g>
								<g>
									<g>
										<path style="fill:#263238;" d="M567.426,445.186c-0.018,0.051,0.322,0.218,0.76,0.374c0.438,0.156,0.808,0.241,0.826,0.19
											c0.018-0.051-0.322-0.218-0.76-0.374C567.814,445.22,567.444,445.135,567.426,445.186z"/>
									</g>
								</g>
							</g>
						</g>
						<g>
							<g>
								<g>
									<g>
										<path style="fill:#263238;" d="M567.506,444.08c-0.033,0.04,0.295,0.348,0.799,0.562c0.503,0.217,0.952,0.243,0.958,0.192
											c0.009-0.056-0.404-0.164-0.881-0.371C567.903,444.259,567.54,444.034,567.506,444.08z"/>
									</g>
								</g>
							</g>
						</g>
						<g>
							<g>
								<g>
									<g>
										<path style="fill:#263238;" d="M569.695,446.815c-0.008,0.02,0.352,0.195,0.981,0.33c0.314,0.067,0.695,0.118,1.121,0.128
											c0.214-0.003,0.431,0.015,0.681-0.041c0.119-0.032,0.258-0.086,0.347-0.221c0.091-0.133,0.069-0.325-0.014-0.442
											c-0.77-0.806-1.887-0.601-2.4-0.236c-0.276,0.181-0.446,0.392-0.543,0.544c-0.097,0.154-0.127,0.251-0.116,0.256
											c0.03,0.025,0.198-0.363,0.732-0.682c0.263-0.156,0.62-0.273,1.023-0.257c0.381,0.016,0.882,0.157,1.14,0.479
											c0.116,0.169-0.007,0.331-0.216,0.374c-0.197,0.049-0.427,0.041-0.631,0.046c-0.414,0.001-0.788-0.035-1.098-0.083
											C570.079,446.911,569.706,446.784,569.695,446.815z"/>
									</g>
								</g>
							</g>
						</g>
						<g>
							<g>
								<g>
									<g>
										<path style="fill:#263238;" d="M569.932,446.95c0.01,0.016,0.24-0.185,0.346-0.641c0.05-0.224,0.059-0.508-0.022-0.807
											c-0.098-0.276-0.218-0.652-0.644-0.779c-0.237-0.049-0.436,0.172-0.457,0.349c-0.041,0.178-0.014,0.351,0.016,0.495
											c0.062,0.294,0.158,0.549,0.259,0.751c0.204,0.405,0.407,0.603,0.424,0.589c0.025-0.018-0.135-0.243-0.298-0.645
											c-0.081-0.201-0.159-0.448-0.208-0.728c-0.064-0.253-0.028-0.656,0.233-0.616c0.253,0.06,0.42,0.39,0.503,0.637
											c0.081,0.264,0.088,0.522,0.059,0.731C570.081,446.709,569.902,446.932,569.932,446.95z"/>
									</g>
								</g>
							</g>
						</g>
						<g>
							<g>
								<g>
									<g>
										<path style="fill:#263238;" d="M553.794,440.269c-0.009,0.036,0.451,0.108,1.111,0.425
											c0.656,0.31,1.509,0.915,2.109,1.854c0.599,0.941,0.787,1.969,0.791,2.695c0.008,0.733-0.12,1.18-0.084,1.187
											c0.011,0.003,0.055-0.104,0.106-0.307c0.052-0.203,0.102-0.503,0.116-0.879c0.032-0.745-0.14-1.82-0.765-2.801
											c-0.625-0.98-1.528-1.59-2.216-1.875c-0.346-0.146-0.64-0.228-0.845-0.266
											C553.912,440.264,553.796,440.257,553.794,440.269z"/>
									</g>
								</g>
							</g>
						</g>
						<g>
							<g>
								<g>
									<g>
										<path style="fill:#263238;" d="M557.547,434.47c-0.051-0.018-0.59,1.363-1.205,3.084c-0.615,1.722-1.072,3.132-1.022,3.15
											c0.051,0.018,0.59-1.363,1.205-3.085C557.141,435.898,557.598,434.488,557.547,434.47z"/>
									</g>
								</g>
							</g>
						</g>
						<g>
							<g>
								<g>
									<g>
										<path style="fill:#263238;" d="M560.142,445.698c-0.023,0.046,0.914,0.549,2.148,0.984
											c1.234,0.438,2.279,0.635,2.289,0.586c0.013-0.055-1.002-0.336-2.224-0.77
											C561.132,446.067,560.166,445.647,560.142,445.698z"/>
									</g>
								</g>
							</g>
						</g>
						<g>
							<g>
								<g>
									<g>
										<path style="fill:#263238;" d="M557.157,444.67c-0.05,0.025,0.009,0.239,0.032,0.502c0.027,0.263,0.01,0.484,0.063,0.499
											c0.049,0.016,0.161-0.214,0.131-0.518C557.356,444.849,557.202,444.644,557.157,444.67z"/>
									</g>
								</g>
							</g>
						</g>
						<g>
							<g>
								<g>
									<g>
										<path style="fill:#263238;" d="M556.512,442.883c-0.049,0.023-0.005,0.216,0.098,0.43
											c0.103,0.214,0.225,0.368,0.274,0.345c0.048-0.023,0.005-0.216-0.098-0.43C556.683,443.014,556.56,442.86,556.512,442.883
											z"/>
									</g>
								</g>
							</g>
						</g>
						<g>
							<g>
								<g>
									<g>
										<path style="fill:#263238;" d="M555.121,441.691c-0.007,0.055,0.196,0.123,0.393,0.279c0.2,0.151,0.317,0.33,0.369,0.309
											c0.05-0.014-0.003-0.275-0.25-0.464C555.388,441.625,555.122,441.639,555.121,441.691z"/>
									</g>
								</g>
							</g>
						</g>
						<g>
							<g>
								<g>
									<g>
										<path style="fill:#263238;" d="M554.078,440.996c-0.035,0.041,0.026,0.15,0.136,0.242
											c0.109,0.092,0.227,0.134,0.261,0.093c0.035-0.041-0.026-0.149-0.136-0.242
											C554.23,440.996,554.113,440.955,554.078,440.996z"/>
									</g>
								</g>
							</g>
						</g>
					</g>
				</g>
				<g style="opacity:0.3;">
					<polygon points="553.954,439.868 569.263,444.834 569.867,442.991 554.164,438.862 					"/>
				</g>
			</g>
			<g>
				<g>
					<g>
						<path style="fill:#263238;" d="M580.257,287.066l-18.949,0.829l0,0l-29.064-0.829l3.317,159.332l23.415-0.776
							c0,0,0.037-1.766,0-4.878l12.375,3.196c0,0,23.311-47.872,28.328-68.275C603.865,358.648,580.257,287.066,580.257,287.066z
							 M558.895,416.402c-0.393-36.775,1.244-99.314,1.781-106.965c0,0,14.339,55.06,14.475,59.404
							C575.235,371.484,565.166,396.895,558.895,416.402z"/>
					</g>
				</g>
				<g>
					<g>
						<path style="fill:#455A64;" d="M558.779,405.959c0.031,0,0.062,0.55,0.092,1.545c0.021,1.069,0.049,2.49,0.083,4.213
							c0.051,3.557,0.09,8.472,0.105,13.9c0.015,5.43,0.004,10.345-0.027,13.901c-0.025,1.723-0.045,3.144-0.06,4.212
							c-0.024,0.994-0.052,1.544-0.083,1.543c-0.031,0-0.062-0.551-0.092-1.546c-0.021-1.068-0.049-2.49-0.083-4.213
							c-0.051-3.558-0.09-8.472-0.105-13.901c-0.015-5.427-0.004-10.34,0.027-13.897c0.024-1.723,0.045-3.144,0.06-4.212
							C558.72,406.509,558.748,405.959,558.779,405.959z"/>
					</g>
				</g>
				<g>
					<g>
						<path style="fill:#455A64;" d="M547.504,289.231c0.026,0.001,0.046,0.294,0.005,0.822c-0.039,0.528-0.167,1.29-0.463,2.194
							c-0.57,1.793-2.003,4.197-4.507,5.765c-2.511,1.559-5.301,1.789-7.161,1.511c-0.943-0.132-1.683-0.352-2.174-0.55
							c-0.492-0.196-0.746-0.342-0.735-0.367c0.029-0.085,1.099,0.422,2.946,0.599c1.819,0.19,4.487-0.087,6.887-1.577
							c2.393-1.499,3.816-3.772,4.446-5.49C547.399,290.404,547.414,289.22,547.504,289.231z"/>
					</g>
				</g>
				<g>
					<g>
						<path style="fill:#455A64;" d="M562.787,289.47c0.031,0,0.063,0.297,0.093,0.835c0.03,0.538,0.059,1.316,0.085,2.277
							c0.052,1.923,0.094,4.579,0.111,7.513c0.002,1.461,0.003,2.853,0.005,4.14c-0.004,1.274-0.19,2.497-0.774,3.343
							c-0.577,0.838-1.376,1.217-1.928,1.279c-0.565,0.064-0.854-0.099-0.844-0.115c0.007-0.043,0.305,0.054,0.813-0.058
							c0.497-0.106,1.202-0.499,1.692-1.28c0.492-0.781,0.644-1.918,0.625-3.172c-0.013-1.284-0.026-2.675-0.04-4.134
							c-0.018-2.934-0.008-5.591,0.021-7.514c0.015-0.962,0.034-1.74,0.058-2.278C562.728,289.768,562.756,289.47,562.787,289.47z"
							/>
					</g>
				</g>
				<g>
					<g>
						<path style="fill:#455A64;" d="M582.005,299.392c-0.003,0.031-0.231,0.032-0.646,0.007c-0.415-0.017-1.011-0.107-1.735-0.275
							c-1.448-0.33-3.399-1.11-5.227-2.48c-1.823-1.378-3.113-3.038-3.831-4.337c-0.362-0.649-0.614-1.197-0.745-1.591
							c-0.139-0.391-0.201-0.611-0.172-0.622c0.075-0.031,0.412,0.819,1.19,2.049c0.772,1.23,2.059,2.803,3.828,4.141
							c1.775,1.33,3.643,2.131,5.038,2.532C581.103,299.223,582.013,299.311,582.005,299.392z"/>
					</g>
				</g>
			</g>
			<g>
				<path style="fill:#455A64;" d="M558.57,291.062c0.031,0.072-0.539,0.159-0.846,0.867c-0.142,0.334-0.204,0.811,0.013,1.207
					c0.202,0.402,0.733,0.62,1.27,0.532c0.537-0.086,0.972-0.461,1.037-0.906c0.081-0.445-0.13-0.878-0.37-1.149
					c-0.516-0.574-1.084-0.477-1.077-0.555c-0.005-0.023,0.117-0.094,0.366-0.091c0.245,0,0.611,0.112,0.946,0.412
					c0.319,0.296,0.64,0.807,0.561,1.45c-0.068,0.656-0.696,1.201-1.388,1.301c-0.687,0.124-1.456-0.195-1.727-0.795
					c-0.279-0.585-0.135-1.171,0.073-1.553c0.223-0.391,0.534-0.612,0.767-0.69C558.429,291.01,558.568,291.039,558.57,291.062z"/>
			</g>
		</g>
		<g>
			<g>
				<g>
					<g>
						<g>
							<g>
								<path style="fill:#455A64;" d="M531.003,291.778c-0.679-5.999,0.265-28.83,0.265-28.83
									c-0.846-10.871-4.495-22.698-5.141-30.594c-2.187-26.722,18.8-25.947,18.8-25.947l6.798-0.768
									c7.036,5.064,14.274,8.423,15.467,15.854l14.813,67.739L531.003,291.778z"/>
							</g>
						</g>
					</g>
				</g>
			</g>
			<g>
				<g>
					<g>
						<path style="fill:#263238;" d="M534.93,208.053c-0.004,0.086,1.115,0.208,2.926,0.339c2.037,0.128,4.429,0.278,7.072,0.444
							c2.761,0.17,5.255,0.355,7.058,0.519c1.804,0.158,2.919,0.279,2.935,0.19c0.014-0.079-1.081-0.354-2.883-0.625
							c-1.8-0.276-4.303-0.531-7.072-0.702c-2.768-0.172-5.276-0.242-7.092-0.264C536.059,207.935,534.934,207.968,534.93,208.053z"
							/>
					</g>
				</g>
			</g>
			<g style="opacity:0.2;">
				<g>
					<g>
						<polygon points="533.323,235.577 563.236,258.373 560.017,242.22 						"/>
					</g>
				</g>
			</g>
			<g>
				<path style="fill:#FAFAFA;" d="M580.889,284.133c0.005,0.144-11.249,0.658-25.133,1.149
					c-13.889,0.491-25.149,0.773-25.154,0.629c-0.005-0.144,11.246-0.658,25.135-1.149
					C569.622,284.27,580.884,283.989,580.889,284.133z"/>
			</g>
			<g>
				<path style="fill:#FAFAFA;" d="M580.338,281.612c0.005,0.144-11.143,0.655-24.897,1.141
					c-13.759,0.487-24.913,0.764-24.918,0.621c-0.005-0.144,11.141-0.654,24.899-1.141
					C569.177,281.746,580.333,281.468,580.338,281.612z"/>
			</g>
		</g>
		<g>
			<g>
				<g>
					<path style="fill:#263238;" d="M548.898,168.029c1.451-2.086,2.123-4.745,1.63-7.237c-0.492-2.493-2.205-4.758-4.552-5.73
						c-2.347-0.972-5.268-0.525-7.09,1.246c-1.597,1.553-2.399,4.014-4.452,4.878c-1.915,0.806-4.495-0.008-5.923,1.501
						c-0.809,0.856-0.907,2.172-1.578,3.14c-0.862,1.244-2.471,1.678-3.711,2.545c-1.748,1.223-2.747,3.441-2.503,5.561
						c0.26,2.265,1.764,4.157,3.087,6.013c1.323,1.856,2.57,4.034,2.204,6.284"/>
				</g>
			</g>
			<g>
				<g>
					<g>
						<g>
							<g>
								<g>
									<g>
										<g>
											<g>
												<g>
													<g>
														<path style="fill:#FFBE9D;" d="M535.684,210.074l-12.752-34.092l0.821-1.131c5.535-7.619,7.954-11.764,17.305-10.643
															l0,0c4.358,0.817,7.973,3.842,9.549,7.986c1.863,4.901,4.238,11.381,5.376,15.424
															c2.024,7.196-4.818,10.424-4.818,10.424l2.82,11.533L535.684,210.074z"/>
													</g>
												</g>
											</g>
										</g>
									</g>
									<g>
										<g>
											<g>
												<g>
													<g>
														<g>
															<path style="fill:#263238;" d="M549.566,177.191c-0.54-0.261-0.766-0.91-0.505-1.45
																c0.261-0.54,0.91-0.766,1.45-0.505c0.54,0.261,0.766,0.91,0.505,1.45
																C550.755,177.226,550.105,177.452,549.566,177.191z"/>
														</g>
													</g>
												</g>
											</g>
										</g>
										<g>
											<g>
												<g>
													<g>
														<g>
															<g>
																<path style="fill:#263238;" d="M550.969,174.85c-0.076,0.157-0.94-0.177-1.928,0.109
																	c-0.993,0.272-1.555,1.008-1.702,0.913c-0.07-0.041-0.024-0.298,0.219-0.628c0.237-0.327,0.697-0.71,1.315-0.884
																	c0.617-0.174,1.209-0.087,1.582,0.068C550.834,174.584,551.007,174.779,550.969,174.85z"/>
															</g>
														</g>
													</g>
												</g>
											</g>
										</g>
									</g>
									<g>
										<g>
											<g>
												<g>
													<g>
														<g>
															<path style="fill:#263238;" d="M540.156,178.979c0.578,0.157,0.92,0.753,0.763,1.332
																c-0.157,0.578-0.753,0.92-1.332,0.763c-0.579-0.157-0.921-0.753-0.764-1.332
																C538.982,179.164,539.578,178.822,540.156,178.979z"/>
														</g>
													</g>
												</g>
											</g>
										</g>
										<g>
											<g>
												<g>
													<g>
														<g>
															<g>
																<path style="fill:#263238;" d="M540.781,178.641c-0.076,0.157-0.94-0.177-1.928,0.109
																	c-0.993,0.272-1.555,1.008-1.702,0.913c-0.07-0.041-0.024-0.298,0.219-0.628c0.237-0.327,0.697-0.71,1.315-0.884
																	c0.617-0.174,1.209-0.087,1.582,0.068C540.646,178.375,540.819,178.57,540.781,178.641z"/>
															</g>
														</g>
													</g>
												</g>
											</g>
										</g>
									</g>
									<g>
										<g>
											<g>
												<g>
													<g>
														<g>
															<path style="fill:#263238;" d="M546.992,185.994c-0.029-0.075,0.545-0.379,1.497-0.809
																c0.25-0.104,0.435-0.222,0.413-0.367c0-0.17-0.181-0.416-0.403-0.685c-0.447-0.578-0.899-1.163-1.372-1.776
																c-1.921-2.541-3.374-4.679-3.245-4.777c0.129-0.098,1.79,1.883,3.712,4.423c0.461,0.623,0.901,1.217,1.335,1.804
																c0.183,0.271,0.465,0.567,0.457,1.032c-0.008,0.235-0.166,0.449-0.323,0.544c-0.156,0.102-0.302,0.145-0.424,0.188
																C547.65,185.902,547.022,186.07,546.992,185.994z"/>
														</g>
													</g>
												</g>
											</g>
										</g>
									</g>
									<g>
										<g>
											<g>
												<g>
													<g>
														<path style="fill:#EB996E;" d="M551.165,198.042c0,0-4.441,1.597-10.149-0.009c0,0,3.622,4.551,10.586,1.797
															L551.165,198.042z"/>
													</g>
												</g>
											</g>
										</g>
									</g>
								</g>
							</g>
						</g>
					</g>
				</g>
				<g>
					<g>
						<g>
							<g>
								<path style="fill:#263238;" d="M546.975,173.938c0.358,0.378,1.028,0.328,1.618,0.085c0.584-0.257,1.084-0.705,1.06-1.226
									c-0.016-0.51-0.867-0.886-1.792-0.493C546.938,172.699,546.619,173.572,546.975,173.938z"/>
							</g>
						</g>
					</g>
				</g>
				<g>
					<g>
						<g>
							<g>
								<path style="fill:#263238;" d="M537.053,177.389c0.433,0.294,1.111,0.073,1.775-0.159c0.651-0.266,1.305-0.55,1.435-1.057
									c0.046-0.249-0.128-0.53-0.521-0.703c-0.386-0.174-0.987-0.21-1.576,0.013c-0.589,0.223-1.016,0.647-1.189,1.034
									C536.798,176.907,536.854,177.233,537.053,177.389z"/>
							</g>
						</g>
					</g>
				</g>
				<g>
					<g>
						<g>
							<g>
								<path style="fill:#263238;" d="M542.865,187.147c-0.155,0.064,0.416,1.21,1.801,1.749c1.379,0.554,2.579,0.109,2.511-0.044
									c-0.035-0.177-1.107-0.055-2.281-0.535C543.709,187.865,543.011,187.041,542.865,187.147z"/>
							</g>
						</g>
					</g>
				</g>
				<g>
					<g>
						<path style="fill:#263238;" d="M548.901,168.029c-1.852,2.118-5.874,2.814-8.622,2.212c-1.943-0.426-3.936-1.582-5.789-0.86
							c-1.717,0.669-2.336,2.222-2.387,4.064c-0.048,1.709-1.576,3.63-3.964,3.582c1.095,3.486,2.217,5.995,1.917,9.516
							c-0.053,0.623-0.762,1.27-1.124,1.78c-0.362,0.51-1.059,0.833-1.632,0.584c-0.563-0.245-0.796-0.903-0.97-1.491
							c-1.027-3.47-2.61-7.065-3.637-10.534c-0.385-1.3-0.216-2.547,0.091-3.868c0.347-1.491,1.51-2.633,2.621-3.686
							c2.197-2.084,4.423-4.189,7.056-5.684c2.633-1.495,5.757-2.342,8.718-1.708c2.961,0.634,6.714,2.296,7.159,5.291"/>
					</g>
				</g>
			</g>
			<g>
				<g>
					<g>
						<g>
							<g>
								<g>
									<path style="fill:#FFBE9D;" d="M527.891,184.194c-0.138-0.027-5.416,0.332-3.708,5.194
										c1.477,4.203,5.897,2.053,5.869,1.907C530.024,191.15,527.891,184.194,527.891,184.194z"/>
								</g>
							</g>
						</g>
					</g>
				</g>
				<g>
					<g>
						<g>
							<g>
								<g>
									<g>
										<path style="fill:#EB996E;" d="M527.898,189.714c-0.022-0.009-0.061,0.071-0.171,0.16
											c-0.108,0.087-0.307,0.179-0.549,0.153c-0.49-0.05-1.049-0.665-1.265-1.424c-0.11-0.383-0.123-0.771-0.064-1.111
											c0.05-0.343,0.195-0.611,0.411-0.709c0.211-0.109,0.405-0.015,0.488,0.091c0.087,0.104,0.082,0.196,0.106,0.197
											c0.015,0.008,0.073-0.094-0.006-0.261c-0.039-0.08-0.115-0.167-0.235-0.223c-0.123-0.057-0.283-0.061-0.436-0.004
											c-0.321,0.106-0.538,0.482-0.604,0.855c-0.082,0.379-0.077,0.817,0.046,1.247c0.246,0.848,0.887,1.535,1.546,1.556
											c0.318,0.002,0.544-0.152,0.647-0.285C527.917,189.818,527.915,189.718,527.898,189.714z"/>
									</g>
								</g>
							</g>
						</g>
					</g>
				</g>
			</g>
		</g>
		<g>
			<g>
				<g>
					<g>
						<path style="fill:#FFBE9D;" d="M670.229,220.86l4.126-0.414c2.391-0.451,5.854-1.527,7.695-2.983
							c1.024-0.81,1.62-1.542,1.418-2.31c-0.382-1.454-1.764-1.189-1.764-1.189s2.47-0.617,1.676-2.352
							c-0.537-1.173-2.412-0.559-2.412-0.559s3.087-1.461,2.68-2.87c-0.308-1.068-1.248-1.056-1.248-1.056
							c1.544-1.154,1.418-1.972,0.883-2.612c-0.684-0.817-2.011-0.608-3.005-0.223l-3.362,1.301
							c-2.098,0.807-3.612,2.078-1.725-1.355c1.887-3.435,2.043-6.784,1.455-7.72c-0.588-0.936-2.105-0.458-2.191,0.755
							c-0.07,0.981-0.693,2.579-1.21,3.76c-0.427,0.975-1.011,1.875-1.738,2.651c-0.85,0.903-1.604,1.636-2.262,2.242l-3.358,3.875
							L670.229,220.86z"/>
					</g>
				</g>
			</g>
			<g>
				<g>
					
						<rect x="559.18" y="197.7" transform="matrix(-0.9838 0.1794 -0.1794 -0.9838 1220.9976 355.4525)" style="fill:#E8505B;" width="70.488" height="70.488"/>
				</g>
				
					<rect x="559.18" y="197.7" transform="matrix(-0.9838 0.1794 -0.1794 -0.9838 1220.9976 355.4525)" style="opacity:0.4;" width="70.488" height="70.488"/>
				<g>
					<path style="fill:#E8505B;" d="M554.938,212.874c0.023-0.052,12.533,5.494,27.937,12.386
						c15.409,6.895,27.878,12.525,27.854,12.577c-0.023,0.052-12.53-5.493-27.939-12.387
						C567.386,218.558,554.914,212.926,554.938,212.874z"/>
				</g>
				<g>
					<path style="fill:#E8505B;" d="M558.349,228.769c0.023-0.053,12.533,5.494,27.937,12.386
						c15.409,6.895,27.878,12.525,27.854,12.577c-0.023,0.053-12.53-5.492-27.94-12.387
						C570.797,234.452,558.325,228.821,558.349,228.769z"/>
				</g>
				<g>
					<path style="fill:#E8505B;" d="M560.669,244.293c0.023-0.053,10.873,4.751,24.23,10.728
						c13.362,5.979,24.171,10.867,24.148,10.919c-0.023,0.053-10.871-4.75-24.233-10.729
						C571.457,249.235,560.645,244.346,560.669,244.293z"/>
				</g>
				<g>
					<path style="fill:#E8505B;" d="M568.184,201.904c0.023-0.053,8.935,3.884,19.901,8.791c10.97,4.909,19.842,8.929,19.818,8.982
						c-0.023,0.053-8.933-3.883-19.903-8.792C577.034,205.978,568.16,201.957,568.184,201.904z"/>
				</g>
				<g>
					<path style="fill:#E8505B;" d="M563.876,260.836c0.025-0.052,4.624,2.094,10.272,4.793c5.649,2.7,10.207,4.93,10.183,4.982
						c-0.025,0.052-4.623-2.094-10.272-4.794C568.41,263.118,563.851,260.888,563.876,260.836z"/>
				</g>
				
					<rect x="608.601" y="188.686" transform="matrix(-0.9838 0.1794 -0.1794 -0.9838 1317.4204 328.704)" style="fill:#E8505B;" width="70.488" height="70.488"/>
			</g>
			<g>
				<path style="fill:#FFBE9D;" d="M680.581,204.309c-1.388,0.546-2.776,1.092-4.163,1.638c-0.511,0.201-1.035,0.41-1.432,0.789
					c-0.397,0.379-0.641,0.972-0.452,1.488c0.19,0.518,0.764,0.814,1.315,0.844c0.551,0.03,1.088-0.154,1.609-0.336
					c1.507-0.525,3.013-1.049,4.52-1.573"/>
				<path style="fill:#FFBE9D;" d="M679.896,207.832c-1.48,0.582-2.961,1.165-4.441,1.747c-0.545,0.214-1.104,0.438-1.528,0.842
					c-0.424,0.404-0.684,1.037-0.482,1.587c0.202,0.553,0.815,0.868,1.402,0.9c0.588,0.032,1.161-0.164,1.717-0.358
					c1.607-0.559,3.214-1.119,4.82-1.678"/>
				<path style="fill:#FFBE9D;" d="M679.95,211.24c-1.244,0.49-2.489,0.979-3.733,1.469c-0.458,0.18-0.928,0.368-1.284,0.708
					c-0.356,0.339-0.575,0.872-0.406,1.334c0.17,0.464,0.685,0.73,1.179,0.757c0.494,0.027,0.976-0.138,1.443-0.301
					c1.351-0.47,2.702-0.94,4.052-1.411"/>
				<path style="fill:#FFBE9D;" d="M681.477,213.707c-1.244,0.49-2.489,0.979-3.733,1.469c-0.458,0.18-0.928,0.368-1.284,0.708
					c-0.356,0.339-0.575,0.872-0.406,1.334c0.17,0.465,0.685,0.73,1.179,0.757c0.494,0.027,0.976-0.138,1.443-0.301
					c1.351-0.47,2.702-0.94,4.052-1.411"/>
				<g>
					<path style="fill:#EB996E;" d="M682.728,206.864c0.048,0.136-1.296,0.732-3.002,1.332c-1.706,0.6-3.127,0.976-3.175,0.84
						c-0.048-0.136,1.296-0.732,3.002-1.332C681.259,207.104,682.68,206.728,682.728,206.864z"/>
				</g>
				<g>
					<path style="fill:#EB996E;" d="M681.474,210.826c0.055,0.13-1.126,0.755-2.682,1.28c-1.555,0.527-2.874,0.747-2.908,0.61
						c-0.037-0.141,1.207-0.583,2.742-1.103C680.161,211.094,681.417,210.691,681.474,210.826z"/>
				</g>
				<g>
					<path style="fill:#EB996E;" d="M681.914,213.818c0.042,0.137-0.854,0.535-2.002,0.888c-1.148,0.353-2.113,0.528-2.156,0.39
						c-0.042-0.137,0.854-0.535,2.003-0.888C680.906,213.855,681.871,213.681,681.914,213.818z"/>
				</g>
			</g>
		</g>
		<g>
			<g>
				<g>
					<path style="fill:#FFBE9D;" d="M641.308,197.762c-1.498-1.71-8.923,4.187-9.589,4.64c-0.646,0.439-1.342-0.493-0.72-0.87
						c0.895-0.542,10.154-6.458,8.698-8.151c-0.807-0.939-2.358,0.667-2.358,0.667s-8.255,6.173-8.915,5.351
						c-0.67-0.835,4.054-4.623,5.738-5.787c1.663-1.151,1.792-2.41,0.671-2.723c-0.765-0.214-6.005,3.232-7.643,4.422
						c-1.638,1.19-6.072,4.536-5.228,1.108c0.844-3.427,0.201-6.38-0.528-7.058c-0.73-0.678-1.939,0.091-1.732,1.167
						c0.167,0.869-0.004,2.406-0.18,3.554c-0.145,0.947-0.443,1.866-0.897,2.71c-0.23,0.428-0.447,0.808-0.66,1.174
						c-5.938,3.232-38.969,21.196-42.457,22.878c-3.834,1.848-33.232-6.153-33.232-6.153l-4.578,18.382
						c0,0,29.161,9.542,36.656,10.002c6.116,0.375,37.576-22.6,48.956-31.074l0,0c4.295-1.661,10.397-4.448,12.971-5.886
						c4.587-2.563,4.363-2.977,3.974-3.461c-1.047-1.298-8.24,4.203-7.38,2.124C633.737,202.7,642.457,199.074,641.308,197.762z"/>
					<g>
						<g>
							<g>
								<g>
									<g>
										<path style="fill:#455A64;" d="M536.389,236.34l26.187,9.052l5.082-24.891c0,0-10.329-3.712-20.118-6.681
											c-7.086-2.149-17.872,0.012-18.769,7.362l0,0C525.967,229.21,531.102,234.317,536.389,236.34z"/>
									</g>
								</g>
							</g>
						</g>
						<g>
							<g>
								<g>
									<path style="fill:#263238;" d="M560.906,244.753c0.091,0.013,0.355-1.384,0.818-3.632c0.46-2.248,1.148-5.341,1.96-8.749
										c0.814-3.409,1.557-6.497,2.042-8.745c0.487-2.248,0.726-3.652,0.645-3.671c-0.085-0.019-0.475,1.349-1.071,3.568
										c-0.593,2.22-1.403,5.29-2.219,8.705c-0.814,3.414-1.437,6.537-1.788,8.814
										C560.939,243.32,560.828,244.742,560.906,244.753z"/>
								</g>
							</g>
						</g>
					</g>
				</g>
				<g>
					<g>
						<g>
							<g>
								<path style="fill:#263238;" d="M530.693,233c0.045-0.035-0.384-0.558-0.963-1.615c-0.569-1.054-1.27-2.684-1.505-4.818
									c-0.24-2.109-0.003-4.76,1.351-7.24c1.328-2.464,3.716-4.724,6.768-5.846c1.519-0.559,3.111-0.768,4.652-0.784
									c1.539-0.02,3.023,0.161,4.417,0.438c2.792,0.559,5.22,1.472,7.268,2.181c2.045,0.73,3.707,1.316,4.871,1.671
									c0.579,0.186,1.037,0.306,1.346,0.39c0.31,0.081,0.476,0.115,0.482,0.095c0.013-0.042-0.617-0.278-1.754-0.702
									c-1.228-0.472-2.846-1.093-4.801-1.845c-2.034-0.76-4.459-1.72-7.303-2.322c-2.821-0.573-6.146-0.837-9.381,0.325
									c-3.2,1.177-5.68,3.552-7.043,6.143c-1.391,2.614-1.587,5.38-1.286,7.547c0.297,2.196,1.079,3.844,1.72,4.882
									c0.326,0.52,0.606,0.905,0.82,1.146C530.561,232.891,530.678,233.013,530.693,233z"/>
							</g>
						</g>
					</g>
				</g>
			</g>
			<g>
				<path style="fill:#FAFAFA;" d="M564.194,219.254c0.138,0.04-1.329,5.456-3.276,12.095c-1.948,6.641-3.638,11.99-3.776,11.949
					c-0.138-0.04,1.329-5.455,3.276-12.096C562.366,224.564,564.056,219.214,564.194,219.254z"/>
			</g>
			<g>
				<path style="fill:#FAFAFA;" d="M561.677,218.579c0.137,0.043-1.404,5.371-3.442,11.899c-2.039,6.53-3.802,11.788-3.94,11.745
					c-0.137-0.043,1.404-5.37,3.442-11.9C559.776,223.794,561.54,218.536,561.677,218.579z"/>
			</g>
		</g>
	</g>
</g>
<g id="Character_1">
	<g>
		<g>
			<path style="fill:#E0E0E0;" d="M169.463,238.191c-31.434,6.568-63.557,6.202-102.04,1.417l17.675-72.903
				c36.968,4.488,64.033,5.521,98.013,0.817L169.463,238.191z"/>
			<g>
				<g>
					<g>
						<path style="fill:#263238;" d="M146.033,191.811c0,0-0.027,0.233-0.11,0.679c-0.092,0.469-0.22,1.125-0.384,1.97
							c-0.356,1.75-0.871,4.276-1.526,7.491c-1.351,6.488-3.279,15.748-5.611,26.948l-0.035,0.17l-0.174,0.002
							c-3.635,0.03-7.525,0.063-11.591,0.097l-0.283,0.002l0.049-0.279c1.135-6.414,2.38-13.446,3.684-20.81l-0.004,0.031
							c0.017-2.323-1.006-4.853-3.099-6.164c-2.085-1.302-4.776-1.508-7.256-1.118c-1.389,0.272-2.711,0.825-3.827,1.664
							c-1.12,0.833-2.027,1.923-2.718,3.12c-0.334,0.605-0.635,1.23-0.86,1.878c-0.23,0.635-0.345,1.324-0.514,2.004
							c-0.313,1.358-0.625,2.706-0.933,4.041c-1.235,5.341-2.427,10.493-3.561,15.398l-0.043,0.187l-0.191,0
							c-5-0.008-9.735-0.016-14.176-0.023l-0.283-0.001l0.072-0.272c2.987-11.294,5.466-20.668,7.206-27.245
							c0.876-3.253,1.564-5.814,2.042-7.588c0.237-0.853,0.421-1.517,0.553-1.991c0.129-0.449,0.211-0.676,0.211-0.676
							s-0.039,0.239-0.146,0.693c-0.117,0.478-0.28,1.147-0.49,2.007c-0.45,1.781-1.1,4.352-1.926,7.618
							c-1.696,6.589-4.114,15.978-7.027,27.292l-0.211-0.273c4.441-0.007,9.177-0.015,14.176-0.023l-0.234,0.186
							c1.125-4.907,2.307-10.061,3.532-15.404c0.307-1.336,0.617-2.683,0.929-4.042c0.166-0.671,0.281-1.371,0.528-2.06
							c0.236-0.68,0.548-1.331,0.897-1.964c0.72-1.252,1.672-2.399,2.857-3.281c1.18-0.887,2.583-1.475,4.042-1.759
							c2.601-0.404,5.373-0.208,7.634,1.195c1.104,0.715,1.993,1.745,2.526,2.918c0.541,1.174,0.815,2.425,0.802,3.709l0,0.012
							l-0.003,0.02c-1.318,7.361-2.577,14.391-3.725,20.802l-0.233-0.277c4.066-0.02,7.956-0.039,11.591-0.057l-0.209,0.171
							c2.407-11.185,4.397-20.432,5.791-26.91c0.704-3.204,1.258-5.723,1.641-7.467c0.191-0.839,0.34-1.49,0.447-1.957
							C145.963,192.035,146.033,191.811,146.033,191.811z"/>
					</g>
					<g>
						<path style="fill:#263238;" d="M101.589,191.606c0-0.008,0.081-0.017,0.239-0.025c0.187-0.007,0.418-0.015,0.702-0.025
							c0.658-0.011,1.562-0.027,2.707-0.047c2.397-0.019,5.799-0.047,10.005-0.08c4.25-0.016,9.308-0.035,14.949-0.057
							c5.65-0.005,11.888-0.056,18.481,0.041l-0.121,0.491c-1.101-0.562-2.276-1.162-3.462-1.767
							c-6.841-3.503-13.326-6.824-19.082-9.772l0.203,0.006c-7.974,3.504-14.721,6.47-19.518,8.578
							c-2.357,1.018-4.233,1.827-5.561,2.4c-0.62,0.259-1.111,0.464-1.481,0.619c-0.338,0.136-0.515,0.201-0.52,0.189
							c-0.005-0.012,0.162-0.1,0.489-0.26c0.363-0.171,0.844-0.399,1.451-0.686c1.315-0.602,3.172-1.453,5.507-2.522
							c4.778-2.151,11.499-5.176,19.442-8.751l0.102-0.046l0.101,0.051c5.763,2.935,12.255,6.241,19.104,9.729
							c1.186,0.606,2.36,1.206,3.461,1.768l0.995,0.508l-1.115-0.017c-6.589-0.102-12.828-0.069-18.478-0.092
							c-5.64-0.021-10.697-0.041-14.947-0.057c-4.205-0.034-7.608-0.061-10.004-0.08c-1.145-0.02-2.049-0.035-2.707-0.047
							c-0.284-0.01-0.515-0.018-0.702-0.025C101.67,191.623,101.589,191.615,101.589,191.606z"/>
					</g>
					<g>
						<path style="fill:#263238;" d="M146.033,191.811c-0.001-0.019,0.219-0.049,0.638-0.089c0.479-0.039,1.087-0.088,1.835-0.148
							c1.667-0.109,3.954-0.258,6.747-0.441l0.253-0.016l-0.056,0.251c-1.083,4.887-2.521,11.376-4.1,18.502
							c-1.698,7.406-3.238,14.121-4.38,19.103l-0.034,0.149l-0.15-0.003c-2.602-0.058-4.733-0.105-6.291-0.14
							c-0.695-0.026-1.261-0.048-1.71-0.065c-0.391-0.021-0.596-0.041-0.596-0.059c0-0.018,0.206-0.034,0.597-0.048
							c0.449-0.009,1.016-0.02,1.711-0.034c1.558-0.007,3.689-0.016,6.292-0.027l-0.184,0.146c1.105-4.99,2.594-11.716,4.237-19.135
							c1.63-7.114,3.115-13.593,4.233-18.472l0.198,0.234c-2.796,0.112-5.087,0.203-6.756,0.27c-0.751,0.019-1.36,0.034-1.841,0.045
							C146.256,191.837,146.034,191.83,146.033,191.811z"/>
					</g>
					<g>
						<path style="fill:#263238;" d="M156.279,191.325c-0.016,0.032-0.441-0.15-1.194-0.505c-0.842-0.412-1.903-0.931-3.166-1.55
							c-2.663-1.329-6.326-3.197-10.356-5.288c-2.507-1.314-4.865-2.55-6.917-3.625l0.105,0.026
							c-2.581-0.022-4.74-0.055-6.254-0.094c-1.514-0.039-2.383-0.085-2.383-0.135c0-0.049,0.869-0.096,2.383-0.135
							c1.514-0.039,3.673-0.072,6.254-0.094l0.055,0l0.051,0.026c2.061,1.059,4.429,2.275,6.947,3.569
							c4.03,2.091,7.666,4.011,10.286,5.423c1.233,0.677,2.269,1.246,3.09,1.697C155.903,191.051,156.296,191.294,156.279,191.325z"
							/>
					</g>
					<g>
						<path style="fill:#263238;" d="M149.521,218.466c-0.001,0.144-4.679,0.231-10.448,0.194
							c-5.771-0.037-10.447-0.183-10.445-0.327c0.001-0.144,4.678-0.231,10.449-0.194
							C144.845,218.176,149.522,218.322,149.521,218.466z"/>
					</g>
					<g>
						<path style="fill:#263238;" d="M151.466,208.182c0,0.144-4.738,0.248-10.581,0.232c-5.845-0.016-10.581-0.145-10.58-0.289
							s4.737-0.248,10.582-0.232C146.729,207.909,151.467,208.038,151.466,208.182z"/>
					</g>
					<g>
						<path style="fill:#263238;" d="M118.415,218.437c-0.001,0.144-5.102,0.23-11.393,0.192
							c-6.293-0.038-11.392-0.185-11.391-0.329c0.001-0.144,5.101-0.23,11.394-0.192
							C113.316,218.146,118.416,218.293,118.415,218.437z"/>
					</g>
					<g>
						<path style="fill:#263238;" d="M120.691,208.153c0,0.144-5.092,0.248-11.372,0.232c-6.282-0.016-11.372-0.145-11.372-0.289
							c0-0.144,5.091-0.248,11.373-0.232C115.6,207.88,120.691,208.009,120.691,208.153z"/>
					</g>
					<g>
						<path style="fill:#263238;" d="M127.429,201.963c-0.001,0.018-0.144,0.036-0.41,0.053c-0.151,0.008-0.313,0.016-0.491,0.026
							c-0.192,0.017-0.41,0.078-0.656,0.121c-0.491,0.093-1.065,0.324-1.67,0.684c-0.585,0.393-1.189,0.936-1.707,1.663
							c-0.521,0.723-0.959,1.612-1.296,2.608c-0.331,0.988-0.493,2.133-0.77,3.308c-0.515,2.367-1.079,4.954-1.67,7.67
							c-0.896,3.99-1.729,7.7-2.432,10.831l-0.039,0.173l-0.174-0.002c-2.664-0.037-4.905-0.069-6.585-0.092
							c-0.73-0.024-1.338-0.043-1.835-0.06c-0.423-0.021-0.648-0.043-0.648-0.066c0-0.023,0.225-0.045,0.648-0.066
							c0.498-0.016,1.105-0.036,1.835-0.059c1.68-0.023,3.921-0.055,6.585-0.092l-0.212,0.17c0.678-3.135,1.483-6.851,2.347-10.846
							c0.605-2.712,1.182-5.295,1.71-7.659c0.29-1.168,0.464-2.305,0.831-3.349c0.368-1.029,0.843-1.943,1.408-2.687
							c0.562-0.748,1.219-1.305,1.852-1.693c0.653-0.357,1.267-0.568,1.782-0.634c0.258-0.03,0.485-0.075,0.684-0.077
							c0.182,0.009,0.348,0.017,0.503,0.024C127.29,201.928,127.43,201.945,127.429,201.963z"/>
					</g>
				</g>
				<g>
					<path style="fill:#263238;" d="M165.84,180.154c0.14,0.033-2.349,11.051-5.559,24.606c-3.211,13.56-5.926,24.522-6.066,24.488
						c-0.14-0.033,2.349-11.049,5.56-24.608C162.984,191.085,165.7,180.121,165.84,180.154z"/>
				</g>
				<g>
					<path style="fill:#263238;" d="M162.98,229.325c-0.003,0.144-3.675,0.177-8.199,0.073c-4.526-0.103-8.191-0.304-8.188-0.447
						c0.003-0.144,3.674-0.177,8.2-0.073C159.317,228.981,162.983,229.181,162.98,229.325z"/>
				</g>
				<g>
					<path style="fill:#263238;" d="M155.593,230.751c-0.133,0.064-0.592-0.624-1.187-1.434c-0.591-0.814-1.107-1.46-1.006-1.567
						c0.094-0.103,0.803,0.403,1.426,1.259C155.453,229.864,155.72,230.693,155.593,230.751z"/>
				</g>
				<g>
					<path style="fill:#263238;" d="M167.365,208.01c0.001,0.144-3.538,0.28-7.904,0.305c-4.367,0.025-7.907-0.072-7.907-0.216
						c-0.001-0.144,3.537-0.28,7.904-0.305C163.824,207.769,167.364,207.866,167.365,208.01z"/>
				</g>
				<g>
					<path style="fill:#263238;" d="M160.4,207.158c0.089,0.113-0.403,0.649-1.099,1.198c-0.696,0.548-1.332,0.901-1.421,0.788
						c-0.089-0.113,0.403-0.649,1.099-1.198C159.675,207.398,160.311,207.045,160.4,207.158z"/>
				</g>
				<g>
					<path style="fill:#263238;" d="M169.671,192.238c-0.006,0.144-3.345,0.113-7.456-0.069c-4.112-0.182-7.44-0.445-7.433-0.589
						c0.006-0.144,3.344-0.113,7.456,0.069C166.349,191.83,169.677,192.094,169.671,192.238z"/>
				</g>
				<g>
					<path style="fill:#263238;" d="M165.171,191.052c0.064,0.129-0.555,0.569-1.384,0.983c-0.829,0.414-1.552,0.646-1.617,0.517
						s0.555-0.569,1.384-0.983C164.383,191.155,165.107,190.924,165.171,191.052z"/>
				</g>
			</g>
			<g>
				<path style="fill:#263238;" d="M169.189,181.24c-0.005,0.144-7.718,0.017-17.226-0.283c-9.511-0.3-17.216-0.66-17.211-0.803
					c0.005-0.144,7.716-0.017,17.228,0.283C161.487,180.737,169.193,181.096,169.189,181.24z"/>
			</g>
			<g>
				<path style="fill:#263238;" d="M167.982,179.802c0.08,0.119-0.814,0.86-1.998,1.654c-1.184,0.794-2.208,1.341-2.288,1.222
					s0.814-0.86,1.998-1.654C166.878,180.23,167.902,179.683,167.982,179.802z"/>
			</g>
		</g>
		<g>
			<path style="fill:#263238;" d="M92.219,203.112c-3.291-5.562-4.235-12.971-5.066-19.38c-0.391-3.016-1.08-7.311,1.041-9.198
				c2.272-2.021,2.491-5.138,5.102-6.697c2.611-1.56,6.152-1.689,8.615,0.096"/>
			<g>
				<g>
					<g>
						<g>
							<g>
								<g>
									<g>
										<path style="fill:#B78876;" d="M101.339,222.812L101.339,222.812c5.047,0.402,9.416-3.47,9.625-8.529
											c0.201-4.858,0.378-9.768,0.378-9.768s7.364-0.668,7.919-7.952c0.555-7.284,0.361-24.104,0.361-24.104l0,0
											c-8.207-4.165-18.026-3.563-25.662,1.575l0.379,25.643l-0.04,13.795C94.334,218.098,96.726,222.445,101.339,222.812z"/>
									</g>
								</g>
							</g>
						</g>
					</g>
					<path style="fill:#263238;" d="M112.026,187.647c-1.252-1.561-3.294-2.187-4.975-1.101c-1.682,1.086-2.334,3.507-1.426,5.291
						c0.641,1.259,2.104,2.402,3.566,2.713c1.375,0.292,2.346,1.623,2.182,3.019c-0.215,1.828-3.259,2.506-4.636,4.015
						c-2.142,2.348-6.832,3.331-9.99,3.695c-3.104,0.358-2.73,0.389-4.527-2.167c-1.308-1.86-1.715-3.647-1.755-5.92
						c-0.095-5.372-0.191-10.744-0.286-16.116c-0.034-1.936-0.066-3.897,0.384-5.781c0.45-1.884,1.443-3.713,3.064-4.773
						c1.776-1.161,4.021-1.254,6.041-1.901c2.526-0.809,4.674-2.476,7.038-3.677c2.364-1.201,5.261-1.914,7.627-0.718
						c1.699,0.859,2.834,2.56,4.486,3.506c2.352,1.347,5.559,1.052,6.693,4.519c0.392,1.198,0.358,2.512-0.05,3.705
						c-1.611,4.709-7.454,6.592-11.652,4.542c-0.085,0.798,0.696,2.577-0.152,5.097
						C113.384,186.399,113.285,187.628,112.026,187.647"/>
				</g>
				<g>
					<path style="fill:#AA6550;" d="M110.709,192.191c0.03,0.011,0.029,0.138-0.101,0.315c-0.127,0.171-0.403,0.381-0.813,0.404
						c-0.816,0.073-1.852-0.807-1.882-2.016c-0.034-0.589,0.185-1.166,0.54-1.54c0.349-0.379,0.778-0.576,1.142-0.653
						c0.751-0.155,1.182,0.123,1.151,0.171c-0.019,0.083-0.448-0.035-1.05,0.184c-0.593,0.188-1.332,0.852-1.262,1.815
						c0.023,0.95,0.782,1.645,1.366,1.672C110.408,192.579,110.656,192.145,110.709,192.191z"/>
				</g>
				<path style="fill:#263238;" d="M89.728,182.813c-1.236-2.416-3.566-4.294-6.236-4.784c-2.669-0.49-5.609,0.505-7.279,2.644
					c-1.67,2.139-1.885,5.363-0.352,7.603c1.754,2.564,5.126,3.377,8.205,3.79c-2.245,2.581-5.587,4.174-9.006,4.293
					c2.417,1.648,5.762,1.818,8.335,0.424c-1.674,1.42-3.347,2.839-5.021,4.258c4.997,1.247,10.691-1.477,12.856-6.151
					c2.164-4.674,0.559-10.778-3.625-13.783"/>
				<g>
					<path style="fill:#E8505B;" d="M85.098,191.723c0.001-0.1,1.024,0.249,2.432-0.425c1.392-0.615,2.927-2.381,3.256-4.723
						c0.383-2.348-0.665-4.423-1.716-5.525c-1.053-1.147-1.999-1.518-1.951-1.604c0.011-0.026,0.258,0.028,0.663,0.229
						c0.403,0.2,0.971,0.546,1.553,1.119c0.583,0.566,1.182,1.362,1.581,2.376c0.408,1.008,0.573,2.238,0.385,3.481
						c-0.348,2.52-2.078,4.411-3.622,4.983c-0.766,0.314-1.455,0.35-1.907,0.294C85.317,191.867,85.09,191.749,85.098,191.723z"/>
				</g>
				<g>
					<path style="fill:#455A64;" d="M74.566,184.37c-0.057,0.002,0.385-1.043,1.91-1.728c1.49-0.699,3.808-0.862,6.207-0.365
						c2.415,0.498,4.406,1.608,5.653,2.602c0.635,0.489,1.091,0.951,1.392,1.28c0.291,0.34,0.437,0.537,0.411,0.562
						c-0.067,0.066-0.731-0.662-2.021-1.545c-1.272-0.894-3.214-1.909-5.541-2.389c-2.317-0.48-4.533-0.377-5.958,0.194
						C75.162,183.53,74.635,184.436,74.566,184.37z"/>
				</g>
				<g>
					<path style="fill:#455A64;" d="M76.759,189.265c0.02-0.082,0.694,0.078,1.786,0.092c1.085,0.02,2.609-0.162,4.108-0.857
						c1.5-0.696,2.623-1.743,3.308-2.584c0.694-0.843,1.007-1.46,1.083-1.423c0.055,0.022-0.142,0.706-0.789,1.646
						c-0.636,0.934-1.786,2.094-3.382,2.834c-1.595,0.74-3.224,0.87-4.347,0.753C77.39,189.612,76.74,189.321,76.759,189.265z"/>
				</g>
				<g>
					<path style="fill:#455A64;" d="M87.827,199.074c-0.048-0.074,0.683-0.523,1.617-1.5c0.932-0.964,2.029-2.533,2.547-4.516
						c0.516-1.984,0.324-3.889-0.019-5.185c-0.338-1.309-0.757-2.057-0.679-2.098c0.045-0.031,0.587,0.662,1.032,1.995
						c0.448,1.315,0.715,3.321,0.169,5.42c-0.548,2.098-1.76,3.717-2.793,4.647C88.662,198.782,87.851,199.122,87.827,199.074z"/>
				</g>
				<g>
					<path style="fill:#455A64;" d="M103.19,170.202c-0.053,0.101-0.926-0.927-2.863-1.114c-0.943-0.089-2.108,0.05-3.238,0.59
						c-1.128,0.538-2.179,1.507-2.991,2.718c-1.634,2.462-2.028,5.216-2.353,7.125c-0.291,1.938-0.495,3.143-0.572,3.132
						c-0.065-0.01,0.008-1.22,0.207-3.18c0.235-1.925,0.567-4.769,2.285-7.366c0.855-1.276,1.985-2.304,3.22-2.862
						c1.233-0.559,2.484-0.664,3.485-0.521c1.007,0.147,1.762,0.525,2.209,0.863C103.032,169.924,103.207,170.187,103.19,170.202z"
						/>
				</g>
				<g>
					<path style="fill:#455A64;" d="M123.685,177.714c-0.016-0.05,0.374-0.1,0.881-0.51c0.48-0.379,1.129-1.273,0.84-2.382
						c-0.137-0.535-0.499-1.081-1.048-1.421c-0.544-0.353-1.273-0.365-2.063-0.341c-0.397,0.006-0.823,0.014-1.265-0.071
						c-0.445-0.08-0.883-0.287-1.249-0.566c-0.744-0.559-1.249-1.337-1.854-1.983c-1.203-1.308-2.766-2.131-4.26-2.516
						c-1.499-0.403-2.929-0.405-4.087-0.211c-2.347,0.385-3.535,1.408-3.59,1.296c-0.017-0.021,0.26-0.277,0.837-0.638
						c0.575-0.361,1.489-0.775,2.688-1.021c1.196-0.249,2.691-0.288,4.272,0.109c1.574,0.379,3.24,1.232,4.525,2.63
						c0.639,0.691,1.129,1.439,1.776,1.927c0.632,0.518,1.41,0.581,2.203,0.564c0.775-0.01,1.64,0.006,2.3,0.457
						c0.645,0.426,1.037,1.072,1.174,1.7c0.146,0.635,0.008,1.244-0.231,1.683c-0.237,0.447-0.558,0.752-0.846,0.947
						c-0.289,0.198-0.549,0.287-0.726,0.326C123.784,177.733,123.688,177.73,123.685,177.714z"/>
				</g>
				<g>
					<path style="fill:#455A64;" d="M104.134,197.928c-0.006,0.024-0.418-0.047-1.068-0.409c-0.643-0.355-1.534-1.042-2.201-2.218
						c-0.671-1.156-1-2.874-0.457-4.596c0.26-0.854,0.738-1.704,1.423-2.401c0.681-0.7,1.52-1.255,2.387-1.753
						c0.868-0.501,1.724-0.948,2.489-1.458c0.764-0.509,1.411-1.103,1.927-1.763c1.029-1.324,1.551-2.802,1.732-4.059
						c0.37-2.561-0.421-4.101-0.295-4.119c0.017-0.007,0.066,0.082,0.146,0.259c0.086,0.175,0.189,0.441,0.287,0.798
						c0.192,0.707,0.392,1.787,0.226,3.112c-0.142,1.317-0.648,2.883-1.717,4.304c-0.532,0.707-1.228,1.358-2.021,1.893
						c-0.793,0.537-1.66,0.993-2.513,1.486c-0.854,0.49-1.65,1.017-2.283,1.659c-0.636,0.637-1.076,1.402-1.331,2.189
						c-0.524,1.585-0.264,3.171,0.324,4.277c0.585,1.126,1.394,1.826,1.984,2.221C103.766,197.748,104.151,197.884,104.134,197.928z
						"/>
				</g>
				<g>
					<path style="fill:#455A64;" d="M91.533,187.201c0.011-0.108,1.363,0.154,3.527-0.074c2.149-0.19,5.132-0.974,7.87-2.836
						c2.734-1.842,4.658-4.308,5.288-6.36c0.676-2.081,0.008-3.425,0.116-3.432c0.021-0.01,0.21,0.286,0.356,0.899
						c0.139,0.609,0.181,1.549-0.119,2.638c-0.575,2.192-2.531,4.788-5.35,6.687c-2.826,1.923-5.927,2.673-8.131,2.771
						c-1.108,0.07-2.006-0.006-2.618-0.085C91.859,187.309,91.527,187.236,91.533,187.201z"/>
				</g>
			</g>
		</g>
		<path style="fill:#B78876;" d="M174.75,228.961l-4.368,4.835l-21.633,25.51c-3.65,4.304-9.806,5.485-14.789,2.836
			c-2.566-1.364-4.551-3.613-5.585-6.329l-7.529-16.144l12.836-7.216c0.605,0.47,7.283,13.487,7.283,13.487
			c1.955-0.624,23.977-22.767,23.977-22.767l0,0l0.274-1.405c0.117-0.572,0.235-1.211,0.344-1.936
			c0.127-0.847,0.106-1.711-0.051-2.553c-0.19-1.02-0.496-2.365-0.887-3.049c-0.482-0.847,0.284-1.846,1.079-1.488
			c0.795,0.359,2.18,2.658,2.485,5.792c0.305,3.133,2.876-0.082,3.867-1.565c1.304-1.953,3.894-0.787,2.941,1.577
			c0,0,0.706,0.06,1.176,0.777c0.604,0.922,0.121,2.282,0.121,2.282s0.364,1.108,0.183,2.944
			C176.261,226.725,174.75,228.961,174.75,228.961z"/>
		<g>
			<g>
				<polygon style="fill:#B78876;" points="112.169,350.494 133.03,446.714 148.771,446.346 135.066,354.334 				"/>
			</g>
			<g>
				<g>
					<g>
						<g>
							<g>
								<g>
									<path style="fill:#E8505B;" d="M150.92,447.958l-0.067-1.76l-17.823,0.515l0.154,5.802l1.102,0.036
										c4.904,0.121,24.944,0.295,28.189-0.715C166.094,450.71,150.92,447.958,150.92,447.958z"/>
								</g>
							</g>
						</g>
						<g style="opacity:0.6;">
							<g>
								<g>
									<path style="fill:#FFFFFF;" d="M139.613,452.214c-0.296-1.371-1.16-2.63-2.373-3.456c-1.214-0.826-2.689-1.24-4.185-1.088
										l0.14,4.61L139.613,452.214z"/>
								</g>
							</g>
						</g>
					</g>
					<g style="opacity:0.6;">
						<g>
							<g>
								<path style="fill:#FFFFFF;" d="M158.341,449.547c0,0,5.328,1.275,4.694,2.102c-0.634,0.827-20.893,1.359-29.851,0.867
									l0.017-0.369l23.636-0.434C156.837,451.713,157.31,449.615,158.341,449.547z"/>
							</g>
						</g>
					</g>
					<g>
						<g>
							<g>
								<g>
									<path style="fill:#263238;" d="M132.922,452.144c0,0.007,0.105,0.014,0.306,0.023c0.264,0.008,0.552,0.016,0.878,0.026
										c0.877,0.012,1.956,0.027,3.229,0.044c2.727,0.02,6.494,0,10.653-0.106c4.16-0.107,7.924-0.28,10.645-0.439
										c1.27-0.083,2.346-0.152,3.221-0.209c0.325-0.026,0.612-0.05,0.875-0.071c0.2-0.018,0.304-0.031,0.304-0.038
										c0-0.007-0.106-0.007-0.307-0.002c-0.263,0.01-0.552,0.021-0.877,0.034c-0.876,0.04-1.953,0.088-3.224,0.146
										c-2.722,0.123-6.485,0.273-10.643,0.38c-4.157,0.106-7.922,0.148-10.647,0.165c-1.272,0.007-2.351,0.014-3.228,0.019
										c-0.326,0.004-0.615,0.008-0.878,0.012C133.028,452.131,132.922,452.137,132.922,452.144z"/>
								</g>
							</g>
						</g>
					</g>
					<g>
						<g>
							<g>
								<g>
									<path style="fill:#263238;" d="M156.841,451.969c0.066,0.006,0.094-0.711,0.559-1.447c0.451-0.743,1.103-1.127,1.064-1.177
										c-0.014-0.049-0.765,0.281-1.251,1.077C156.717,451.213,156.788,451.983,156.841,451.969z"/>
								</g>
							</g>
						</g>
					</g>
					<g>
						<g>
							<g>
								<g>
									<path style="fill:#263238;" d="M151.53,449.638c0.051,0.028,0.293-0.262,0.54-0.648c0.247-0.386,0.406-0.722,0.355-0.75
										c-0.051-0.028-0.293,0.262-0.54,0.648C151.638,449.273,151.479,449.609,151.53,449.638z"/>
								</g>
							</g>
						</g>
					</g>
					<g>
						<g>
							<g>
								<g>
									<path style="fill:#263238;" d="M150.072,448.969c0.041,0.04,0.316-0.141,0.614-0.404c0.298-0.264,0.506-0.509,0.465-0.549
										c-0.041-0.04-0.316,0.141-0.614,0.404C150.239,448.683,150.031,448.929,150.072,448.969z"/>
								</g>
							</g>
						</g>
					</g>
					<g>
						<g>
							<g>
								<g>
									<path style="fill:#263238;" d="M149.116,447.436c0.001,0.055,0.417,0.094,0.929,0.085c0.512-0.008,0.926-0.06,0.926-0.115
										c-0.001-0.055-0.417-0.093-0.929-0.085C149.529,447.329,149.115,447.381,149.116,447.436z"/>
								</g>
							</g>
						</g>
					</g>
					<g>
						<g>
							<g>
								<g>
									<path style="fill:#263238;" d="M148.771,446.346c-0.018,0.05,0.439,0.227,1.042,0.252c0.603,0.028,1.076-0.109,1.063-0.16
										c-0.012-0.057-0.48-0.013-1.053-0.04C149.25,446.375,148.788,446.291,148.771,446.346z"/>
								</g>
							</g>
						</g>
					</g>
					<g>
						<g>
							<g>
								<g>
									<path style="fill:#263238;" d="M152.088,448.183c-0.001,0.022,0.438,0.061,1.14-0.037c0.35-0.048,0.763-0.137,1.206-0.281
										c0.22-0.08,0.451-0.141,0.687-0.284c0.111-0.073,0.233-0.175,0.272-0.337c0.042-0.16-0.054-0.336-0.186-0.419
										c-1.106-0.496-2.18,0.102-2.568,0.637c-0.215,0.273-0.309,0.536-0.351,0.717c-0.04,0.183-0.033,0.286-0.021,0.287
										c0.041,0.013,0.064-0.419,0.492-0.918c0.211-0.244,0.534-0.485,0.956-0.614c0.399-0.122,0.971-0.167,1.361,0.05
										c0.185,0.12,0.12,0.32-0.078,0.437c-0.184,0.118-0.425,0.192-0.633,0.271c-0.427,0.15-0.826,0.25-1.165,0.315
										C152.522,448.138,152.087,448.15,152.088,448.183z"/>
								</g>
							</g>
						</g>
					</g>
					<g>
						<g>
							<g>
								<g>
									<path style="fill:#263238;" d="M152.385,448.227c0.016,0.011,0.176-0.264,0.109-0.739
										c-0.035-0.233-0.136-0.509-0.335-0.766c-0.208-0.23-0.477-0.548-0.965-0.516c-0.263,0.038-0.384,0.322-0.337,0.499
										c0.027,0.185,0.121,0.342,0.208,0.469c0.178,0.26,0.376,0.47,0.558,0.627c0.368,0.315,0.654,0.432,0.665,0.412
										c0.019-0.027-0.233-0.184-0.557-0.512c-0.161-0.164-0.338-0.372-0.497-0.624c-0.163-0.22-0.283-0.619,0.002-0.675
										c0.285-0.033,0.584,0.223,0.765,0.43c0.186,0.225,0.293,0.469,0.343,0.681
										C152.445,447.943,152.347,448.221,152.385,448.227z"/>
								</g>
							</g>
						</g>
					</g>
					<g>
						<g>
							<g>
								<g>
									<path style="fill:#263238;" d="M133.147,447.621c0.005,0.037,0.507-0.059,1.311,0.008c0.797,0.061,1.911,0.335,2.893,1.021
										c0.982,0.687,1.574,1.607,1.859,2.301c0.292,0.7,0.333,1.175,0.373,1.169c0.013-0.001,0.016-0.12-0.01-0.333
										c-0.025-0.213-0.089-0.52-0.22-0.884c-0.255-0.726-0.849-1.696-1.872-2.413c-1.024-0.715-2.191-0.976-3.012-1.002
										c-0.414-0.016-0.748,0.012-0.975,0.049C133.266,447.573,133.145,447.609,133.147,447.621z"/>
								</g>
							</g>
						</g>
					</g>
					<g>
						<g>
							<g>
								<g>
									<path style="fill:#263238;" d="M141.797,450.547c-0.006,0.052,1.156,0.198,2.598,0.171c1.443-0.023,2.597-0.21,2.589-0.261
										c-0.007-0.058-1.164,0.039-2.593,0.062C142.962,450.545,141.803,450.489,141.797,450.547z"/>
								</g>
							</g>
						</g>
					</g>
					<g>
						<g>
							<g>
								<g>
									<path style="fill:#263238;" d="M138.32,450.634c-0.042,0.041,0.102,0.226,0.228,0.47c0.13,0.243,0.197,0.461,0.258,0.456
										c0.057-0.002,0.084-0.263-0.065-0.544C138.594,450.734,138.357,450.592,138.32,450.634z"/>
								</g>
							</g>
						</g>
					</g>
					<g>
						<g>
							<g>
								<g>
									<path style="fill:#263238;" d="M136.963,449.152c-0.041,0.04,0.079,0.209,0.267,0.377c0.189,0.168,0.375,0.272,0.416,0.232
										c0.041-0.04-0.078-0.208-0.268-0.377C137.19,449.216,137.004,449.112,136.963,449.152z"/>
								</g>
							</g>
						</g>
					</g>
					<g>
						<g>
							<g>
								<g>
									<path style="fill:#263238;" d="M135.067,448.508c0.014,0.056,0.25,0.048,0.513,0.126c0.265,0.073,0.455,0.203,0.5,0.164
										c0.047-0.031-0.11-0.262-0.437-0.355C135.316,448.348,135.047,448.457,135.067,448.508z"/>
								</g>
							</g>
						</g>
					</g>
					<g>
						<g>
							<g>
								<g>
									<path style="fill:#263238;" d="M133.722,448.216c-0.02,0.052,0.085,0.134,0.233,0.183c0.149,0.049,0.286,0.047,0.306-0.005
										c0.02-0.052-0.085-0.134-0.234-0.183C133.878,448.162,133.742,448.164,133.722,448.216z"/>
								</g>
							</g>
						</g>
					</g>
				</g>
			</g>
		</g>
		<g>
			<g>
				<polygon style="fill:#B78876;" points="73.648,347.239 68.579,441.2 84.072,444.943 95.686,349.22 				"/>
			</g>
			<g>
				<g>
					<polygon style="fill:#E8505B;" points="68.118,440.836 65.48,452.443 83.308,452.443 84.072,444.887 					"/>
				</g>
				<g>
					<g>
						<path style="fill:#263238;" d="M83.673,450.757c0,0.066-0.992,0.133-2.597,0.149c-1.605,0.018-3.822-0.026-6.266-0.115
							c-2.356-0.1-4.488-0.19-6.256-0.266c-1.6-0.077-2.591-0.138-2.59-0.208c0-0.066,0.992-0.129,2.598-0.141
							c1.605-0.014,3.822,0.031,6.266,0.121c2.356,0.098,4.486,0.186,6.254,0.26C82.682,450.63,83.673,450.686,83.673,450.757z"/>
					</g>
				</g>
				<g>
					<g>
						<path style="fill:#263238;" d="M76.119,443.098c0.136,0.009,0.134,1.692-0.005,3.758c-0.139,2.067-0.362,3.735-0.499,3.725
							c-0.136-0.009-0.134-1.692,0.005-3.759C75.76,444.757,75.983,443.089,76.119,443.098z"/>
					</g>
				</g>
				<g style="opacity:0.6;">
					<polyline style="fill:#FFFFFF;" points="65.48,452.443 83.308,452.443 83.479,450.757 65.801,450.316 65.48,452.241 					"/>
				</g>
			</g>
		</g>
		<path style="fill:#B78876;" d="M65.815,245.452l-5.962,14.241c-1.346,4.241,0.99,8.772,5.225,10.137v0
			c4.2,1.353,8.71-0.913,10.131-5.091l4.776-14.047L65.815,245.452z"/>
		<g>
			<path style="fill:#263238;" d="M82.132,275.77c0,0-10.873,18.167-10.873,29.035L63.87,421.632l29.464,3.396l7.157-114.458
				c0,0,24.087,116.156,25.106,116.156c1.019,0,26.837-1.698,26.837-1.698l-27.852-148.676L82.132,275.77z"/>
			<g>
				<path style="fill:#E0E0E0;" d="M146.984,425.132c-0.142,0.025-6.119-33.257-13.349-74.328
					c-7.232-41.085-12.979-74.401-12.837-74.426c0.142-0.025,6.118,33.25,13.35,74.335
					C141.378,391.785,147.126,425.107,146.984,425.132z"/>
			</g>
			<g>
				<path style="fill:#E0E0E0;" d="M138.312,426.726c-0.142,0.024-6.041-33.615-13.174-75.126
					c-7.136-41.526-12.804-75.197-12.662-75.222c0.142-0.024,6.039,33.608,13.175,75.133
					C132.785,393.023,138.454,426.702,138.312,426.726z"/>
			</g>
			<g>
				<path style="fill:#E0E0E0;" d="M130.47,426.446c-0.141,0.027-6.78-33.734-14.827-75.398
					c-8.049-41.679-14.458-75.477-14.317-75.504c0.141-0.027,6.779,33.727,14.828,75.405
					C124.201,392.613,130.611,426.418,130.47,426.446z"/>
			</g>
			<g>
				<path style="fill:#E0E0E0;" d="M89.407,424.576c-0.144-0.008,1.46-33.282,3.582-74.31c2.122-41.043,3.959-74.298,4.102-74.29
					c0.144,0.007-1.46,33.274-3.582,74.317C91.388,391.321,89.551,424.583,89.407,424.576z"/>
			</g>
			<g>
				<path style="fill:#E0E0E0;" d="M90.407,275.77c0.008,0.004-0.047,0.122-0.156,0.351c-0.118,0.253-0.275,0.59-0.476,1.019
					c-0.409,0.9-0.99,2.238-1.639,3.999c-1.28,3.516-2.903,8.756-3.538,15.44c-0.983,13.396-1.882,31.957-2.992,52.438
					c-1.083,20.48-2.063,39.017-2.775,52.469c-0.37,6.691-0.67,12.115-0.879,15.898c-0.113,1.853-0.201,3.304-0.264,4.321
					c-0.034,0.473-0.061,0.844-0.081,1.123c-0.021,0.253-0.037,0.382-0.046,0.382c-0.009,0-0.011-0.131-0.008-0.384
					c0.007-0.279,0.017-0.652,0.03-1.126c0.039-1.019,0.095-2.47,0.166-4.326c0.17-3.785,0.413-9.212,0.713-15.907
					c0.631-13.431,1.539-31.985,2.622-52.478c1.11-20.486,2.066-39.031,3.145-52.447c0.686-6.721,2.372-11.97,3.715-15.475
					c0.68-1.756,1.293-3.085,1.734-3.973c0.221-0.444,0.399-0.777,0.523-0.999C90.328,275.875,90.399,275.765,90.407,275.77z"/>
			</g>
			<g>
				<path style="fill:#E0E0E0;" d="M83.371,275.544c0.008,0.004-0.036,0.126-0.129,0.361c-0.106,0.258-0.246,0.601-0.426,1.037
					c-0.374,0.911-0.976,2.233-1.598,3.997c-1.321,3.493-2.959,8.671-4.142,15.249c-0.575,3.29-1.061,6.919-1.404,10.834
					c-0.337,3.916-0.554,8.112-0.755,12.531c-0.323,8.847-1.135,18.55-1.856,28.732c-1.514,20.361-2.884,38.79-3.879,52.164
					c-0.52,6.651-0.941,12.042-1.235,15.803c-0.155,1.842-0.277,3.283-0.362,4.295c-0.045,0.47-0.081,0.839-0.107,1.116
					c-0.027,0.251-0.045,0.38-0.054,0.379c-0.009-0.001-0.008-0.13,0.001-0.383c0.014-0.278,0.032-0.648,0.056-1.12
					c0.062-1.013,0.151-2.457,0.265-4.302c0.255-3.764,0.62-9.159,1.07-15.815c0.955-13.376,2.272-31.809,3.726-52.174
					c0.722-10.188,1.547-19.878,1.896-28.719c0.214-4.419,0.448-8.622,0.804-12.546c0.363-3.924,0.872-7.564,1.472-10.862
					c1.234-6.595,2.933-11.776,4.315-15.255c0.653-1.757,1.286-3.069,1.692-3.968c0.199-0.428,0.356-0.764,0.473-1.017
					C83.303,275.655,83.363,275.54,83.371,275.544z"/>
			</g>
			<g>
				<path style="fill:#455A64;" d="M112.476,313.496c-0.034,0.14-5.759-1.138-12.786-2.853c-7.029-1.716-12.698-3.22-12.664-3.359
					c0.034-0.14,5.758,1.138,12.787,2.853C106.84,311.852,112.51,313.356,112.476,313.496z"/>
			</g>
		</g>
		<g>
			<g>
				<g>
					<path style="fill:#E8505B;" d="M82.132,275.77l5.075-14.736l-3.525-17.882l-2.759,7.885l-17.053-6.261
						c0,0,11.042-22.075,11.595-23.237c5.046-10.6,18.495-10.6,18.495-10.6l17.121,0.449c0,0,7.984-1.069,14.705,5.704
						c4.901,4.939,15.409,27.673,15.409,27.673l-15.409,8.094l-5.498-10.275l1.031,14.055l3.547,21.419L82.132,275.77z"/>
				</g>
			</g>
			<g>
				<path style="fill:#263238;" d="M117.88,215.969c0.008,0.055-0.481,0.072-1.26,0.395c-0.771,0.318-1.814,1.045-2.607,2.331
					c-0.794,1.272-1.319,3.062-1.065,5.049c0.202,1.988,1.025,4.07,2.022,6.179c1.99,4.249,3.743,8.125,4.998,10.934
					c0.584,1.338,1.073,2.458,1.459,3.341c0.334,0.794,0.503,1.24,0.471,1.256c-0.033,0.016-0.264-0.401-0.654-1.168
					c-0.425-0.864-0.964-1.96-1.608-3.269c-1.341-2.77-3.144-6.616-5.138-10.872c-1.002-2.122-1.843-4.269-2.028-6.352
					c-0.241-2.078,0.358-3.997,1.233-5.295c0.874-1.327,2.015-2.049,2.843-2.321c0.415-0.143,0.754-0.203,0.983-0.211
					C117.759,215.949,117.879,215.951,117.88,215.969z"/>
			</g>
			<g>
				<path style="fill:#263238;" d="M87.375,261.836c-0.141,0.029-2.192-9.248-4.581-20.719c-2.39-11.475-4.212-20.798-4.072-20.827
					c0.141-0.029,2.192,9.246,4.581,20.721C85.693,252.482,87.516,261.807,87.375,261.836z"/>
			</g>
			<g style="opacity:0.2;">
				<path d="M88.641,260.691c3.214,2.406,7.947,1.604,11.907,0.945c3.96-0.658,7.789-2.542,10.37-5.617
					c1.159-1.38,2.083-3.107,1.926-4.902c-0.157-1.796-1.745-3.528-3.534-3.313c-2.051,0.247-3.04,2.546-4.028,4.361
					c-3.123,5.736-10.165,9.043-16.574,7.783C88.708,259.948,88.068,260.263,88.641,260.691z"/>
			</g>
			<g>
				<path style="fill:#263238;" d="M113.098,247.923c0.027,0,0.058,0.44-0.013,1.232c-0.065,0.792-0.296,1.935-0.823,3.264
					c-1.019,2.65-3.561,5.988-7.486,7.986c-3.926,1.983-7.992,2.286-10.798,2.166c-1.417-0.059-2.556-0.205-3.335-0.343
					c-0.779-0.137-1.203-0.248-1.197-0.28c0.013-0.095,1.737,0.226,4.54,0.255c2.776,0.026,6.743-0.335,10.553-2.262
					c3.799-1.936,6.305-5.124,7.383-7.666C113.046,249.71,112.976,247.902,113.098,247.923z"/>
			</g>
			<g style="opacity:0.2;">
				<path d="M113.098,225.826c1,8.076,2.307,14.701,3.991,22.662c0.828,3.916,1.835,8.002,4.535,10.956l-1.552-17.904
					L113.098,225.826z"/>
			</g>
		</g>
	</g>
</g>
</svg>
